{"glyphs":{":":{"x_min":0,"x_max":217,"ha":217,"o":"m 32 -10 q 19 -10 10 -4 q 0 3 0 17 q 0 34 19 46 q 38 58 58 58 q 70 58 77 53 q 84 48 84 34 q 84 19 68 4 q 52 -10 32 -10 z m 92 240 q 79 240 70 246 q 60 253 60 267 q 60 284 79 296 q 98 308 118 308 q 130 308 137 303 q 144 298 144 284 q 144 269 128 254 q 112 240 92 240 z"},"$":{"x_min":0,"x_max":532,"ha":532,"o":"m 386 720 q 384 712 381 695 q 378 678 374 655 q 407 655 429 648 q 451 640 464 626 q 477 612 482 593 q 487 574 487 551 q 487 512 474 470 q 462 428 439 390 q 421 394 412 406 q 404 418 404 432 q 404 444 410 463 q 416 482 422 503 q 429 524 435 545 q 441 566 441 582 q 441 605 425 618 q 409 631 369 631 l 310 319 q 336 305 361 290 q 386 274 406 254 q 426 234 438 207 q 451 180 451 143 q 451 98 432 62 q 413 27 382 2 q 350 -23 310 -38 q 269 -52 225 -56 q 205 -108 181 -135 q 157 -162 125 -162 q 136 -148 148 -120 q 161 -93 174 -56 q 137 -54 104 -44 q 71 -33 46 -14 q 21 4 6 32 q -9 59 -9 95 q -9 128 4 153 q 16 178 34 194 q 53 210 76 218 q 98 226 119 226 q 92 197 78 162 q 64 127 64 93 q 64 42 95 12 q 126 -18 184 -24 q 202 36 220 110 q 239 185 256 263 q 231 278 206 294 q 182 309 162 328 q 143 348 131 374 q 119 399 119 433 q 119 474 136 511 q 154 548 184 577 q 214 606 253 626 q 292 645 336 652 q 338 661 340 671 q 342 681 346 690 q 351 700 360 708 q 369 715 386 720 z m 182 458 q 182 414 208 387 q 235 360 273 339 q 290 421 305 496 q 320 571 331 627 q 297 620 270 602 q 242 585 222 562 q 203 538 192 511 q 182 484 182 458 z m 382 113 q 382 160 356 189 q 331 218 294 241 q 274 138 260 72 q 245 5 235 -24 q 304 -17 343 20 q 382 57 382 113 z"},"?":{"x_min":0,"x_max":438,"ha":438,"o":"m 443 587 q 443 550 432 521 q 420 492 402 466 q 384 440 362 416 q 340 391 318 364 q 296 337 278 306 q 259 276 248 237 q 238 203 236 176 q 234 149 223 124 q 203 134 198 142 q 192 151 192 171 q 192 211 206 244 q 220 278 242 308 q 263 339 288 368 q 312 398 334 430 q 355 462 369 498 q 383 535 383 579 q 383 636 360 664 q 338 692 304 692 q 278 692 251 676 q 224 659 202 630 q 180 601 166 562 q 153 524 153 480 q 153 463 155 450 q 157 437 160 423 q 122 429 110 450 q 98 470 98 500 q 98 542 114 582 q 129 622 156 652 q 184 683 222 702 q 261 720 308 720 q 371 720 407 686 q 443 652 443 587 z m 182 -10 q 169 -10 160 -4 q 150 3 150 16 q 150 34 169 46 q 188 58 208 58 q 234 58 234 36 q 234 19 218 4 q 202 -10 182 -10 z"},"<":{"x_min":0,"x_max":311,"ha":311,"o":"m 201 316 q 203 314 204 306 q 206 299 206 294 q 206 274 189 254 q 172 233 146 214 q 121 194 92 177 q 62 160 37 147 q 54 135 68 124 q 83 114 100 104 q 118 94 142 84 q 165 73 199 60 q 194 55 187 50 q 180 44 170 44 q 152 44 126 56 q 101 68 76 86 q 52 104 34 124 q 15 143 11 158 l 24 160 q 44 170 68 188 q 92 205 116 226 q 141 247 163 270 q 185 294 201 316 z"},"'":{"x_min":0,"x_max":126,"ha":126,"o":"m 207 692 q 179 663 166 634 q 152 605 138 576 q 129 581 125 591 q 121 601 121 613 q 121 628 126 647 q 132 666 140 682 q 149 698 160 709 q 171 720 182 720 q 192 720 200 712 q 207 703 207 692 z"},"=":{"x_min":0,"x_max":504,"ha":504,"o":"m 42 106 q 48 121 64 130 q 81 140 106 146 q 131 151 163 153 q 195 155 231 155 q 285 155 331 152 q 377 148 399 146 q 374 128 346 122 q 317 117 296 117 l 195 117 q 172 117 154 116 q 136 116 118 115 q 101 114 83 112 q 65 110 42 106 z m 42 206 q 48 221 64 230 q 81 240 106 246 q 131 251 163 253 q 195 255 231 255 q 285 255 331 252 q 377 248 399 246 q 374 228 346 222 q 317 217 296 217 l 195 217 q 172 217 154 216 q 136 216 118 215 q 101 214 83 212 q 65 210 42 206 z"},"a":{"x_min":0,"x_max":437,"ha":437,"o":"m 280 212 q 284 211 291 209 q 298 207 304 204 q 311 201 316 197 q 320 193 320 187 q 320 178 311 162 q 302 146 291 126 q 280 107 271 86 q 262 66 262 48 q 262 33 270 18 q 278 4 296 4 q 323 4 367 43 q 411 82 456 162 l 466 152 q 450 111 427 78 q 404 44 378 20 q 351 -4 323 -17 q 295 -30 268 -30 q 231 -30 214 -8 q 196 14 196 40 q 196 52 199 69 q 155 11 120 -18 q 85 -47 48 -47 q 16 -47 -5 -26 q -26 -6 -26 36 q -26 66 -14 100 q -3 134 17 168 q 37 203 64 234 q 91 266 122 290 q 152 314 185 328 q 218 343 251 343 q 290 343 316 322 q 342 302 342 268 q 342 243 328 234 q 315 225 293 225 q 298 243 298 260 q 298 283 287 300 q 276 316 249 316 q 225 316 201 302 q 177 288 154 264 q 131 241 111 211 q 91 181 76 150 q 60 118 52 88 q 43 57 43 33 q 43 -6 70 -6 q 93 -6 122 18 q 151 42 180 76 q 209 110 236 148 q 262 185 280 212 z"},"L":{"x_min":0,"x_max":571,"ha":571,"o":"m 26 -53 q 2 -53 -17 -44 q -36 -35 -48 -22 q -61 -9 -68 6 q -74 22 -74 34 q -74 52 -58 65 q -42 78 -1 78 q 25 78 56 72 q 88 66 122 57 q 140 88 156 128 q 172 168 187 212 q 202 257 217 305 q 232 353 247 400 q 200 415 174 444 q 148 473 148 507 q 148 520 152 534 q 157 548 165 560 q 173 571 184 578 q 196 586 210 586 q 202 575 200 556 q 197 538 197 524 q 197 486 213 460 q 229 435 254 421 q 273 481 295 535 q 317 589 343 630 q 369 671 400 696 q 431 720 469 720 q 484 720 501 716 q 518 711 532 699 q 547 687 556 668 q 566 648 566 618 q 566 583 552 543 q 537 503 508 468 q 478 434 433 411 q 388 388 326 388 l 310 388 q 295 342 278 294 q 262 247 244 202 q 227 158 208 118 q 188 77 166 44 q 200 33 236 22 q 271 11 305 2 q 339 -7 371 -12 q 403 -18 431 -18 q 471 -18 502 -2 q 485 -49 459 -68 q 433 -87 397 -87 q 370 -87 338 -78 q 307 -69 274 -56 q 240 -42 206 -26 q 171 -9 137 6 q 112 -22 85 -38 q 58 -53 26 -53 z m 476 695 q 453 695 432 672 q 411 648 392 608 q 372 569 354 517 q 335 465 316 407 q 361 407 398 434 q 434 460 460 497 q 485 534 498 574 q 512 615 512 645 q 512 674 501 684 q 490 695 476 695 z m 22 -24 q 44 -24 63 -12 q 82 0 99 22 q 67 35 38 44 q 9 52 -15 52 q -34 52 -41 47 q -48 42 -48 33 q -48 24 -43 14 q -38 4 -28 -4 q -19 -13 -6 -18 q 7 -24 22 -24 z"},"3":{"x_min":0,"x_max":511,"ha":511,"o":"m 382 596 q 382 623 374 642 q 367 660 354 672 q 342 683 326 688 q 309 693 292 693 q 271 693 250 686 q 230 679 214 665 q 198 651 188 631 q 178 611 178 585 q 178 570 182 552 q 186 535 194 518 q 189 507 177 498 q 165 490 154 490 q 145 490 138 498 q 131 505 126 516 q 122 528 120 542 q 117 556 117 569 q 117 605 134 634 q 150 662 176 681 q 203 700 236 710 q 270 720 304 720 q 334 720 362 712 q 390 704 411 688 q 432 672 445 648 q 458 624 458 591 q 458 558 444 522 q 431 485 408 452 q 384 420 352 396 q 320 371 283 361 q 326 350 355 328 q 384 306 401 279 q 418 252 426 223 q 433 194 433 168 q 433 121 412 75 q 392 29 355 -7 q 318 -43 268 -65 q 218 -87 160 -87 q 114 -87 82 -74 q 51 -60 32 -39 q 13 -18 4 7 q -4 32 -4 55 q -4 74 1 94 q 6 113 16 128 q 27 144 42 154 q 57 163 77 163 q 82 163 86 163 q 91 163 95 162 q 81 150 72 122 q 63 95 63 69 q 63 45 70 23 q 78 1 92 -16 q 105 -34 125 -44 q 145 -55 169 -55 q 199 -55 228 -39 q 257 -23 280 6 q 303 36 317 77 q 331 118 331 168 q 331 197 326 226 q 320 256 307 280 q 294 305 272 324 q 251 343 220 351 q 257 367 287 396 q 317 424 338 458 q 359 492 370 528 q 382 564 382 596 z"},";":{"x_min":0,"x_max":214,"ha":214,"o":"m 92 240 q 79 240 70 246 q 60 253 60 267 q 60 284 79 296 q 98 308 118 308 q 130 308 137 303 q 144 298 144 284 q 144 269 128 254 q 112 240 92 240 z m 77 28 q 49 -1 36 -30 q 22 -59 8 -88 q -1 -83 -5 -73 q -9 -63 -9 -51 q -9 -36 -4 -17 q 2 2 10 18 q 19 34 30 45 q 41 56 52 56 q 62 56 70 48 q 77 39 77 28 z"},"J":{"x_min":0,"x_max":412,"ha":412,"o":"m 138 647 q 143 681 182 700 q 220 718 301 718 q 331 718 362 716 q 393 713 422 710 q 450 707 473 704 q 496 700 510 697 q 504 688 494 682 q 485 676 474 673 q 463 670 452 669 q 441 668 433 668 q 413 668 396 668 q 378 667 362 667 q 373 659 378 645 q 383 631 383 620 q 383 609 378 576 q 373 542 364 494 q 355 447 342 390 q 329 333 313 274 q 297 216 279 160 q 261 105 241 61 q 221 16 201 -12 q 181 -41 161 -58 q 141 -74 120 -80 q 99 -86 77 -86 q 59 -86 40 -82 q 21 -77 6 -63 q -10 -49 -20 -24 q -31 2 -31 44 q -31 73 -26 103 q -20 133 -10 157 q -1 181 13 196 q 27 212 45 212 q 57 212 73 204 q 37 112 37 44 q 37 -1 53 -26 q 69 -51 100 -51 q 113 -51 124 -46 q 135 -41 146 -29 q 157 -17 168 3 q 178 23 189 54 q 202 90 216 140 q 231 191 246 248 q 261 306 275 366 q 289 426 302 482 q 314 538 324 586 q 334 634 340 667 q 303 667 276 666 q 248 664 226 662 q 203 660 182 656 q 162 653 138 647 z"},"V":{"x_min":0,"x_max":633,"ha":633,"o":"m 230 -56 q 258 -56 295 -27 q 332 2 372 50 q 411 99 448 162 q 486 224 516 291 q 546 358 564 424 q 582 489 582 544 q 582 594 567 617 q 552 640 527 648 q 541 672 556 683 q 572 694 585 694 q 606 694 626 667 q 646 640 646 583 q 646 528 625 457 q 604 386 570 312 q 535 238 490 166 q 445 94 396 38 q 348 -18 300 -52 q 251 -87 210 -87 q 199 -87 184 -84 q 170 -81 156 -72 q 143 -63 134 -48 q 124 -32 124 -7 q 124 30 144 94 q 163 157 187 234 q 211 311 230 394 q 250 477 250 552 q 250 580 249 605 q 248 630 242 650 q 236 669 224 680 q 212 692 190 692 q 162 692 142 675 q 123 658 110 632 q 98 607 92 578 q 87 549 87 524 q 87 491 96 470 q 57 470 41 492 q 25 513 25 542 q 25 573 40 604 q 55 636 80 662 q 105 687 138 704 q 171 720 208 720 q 271 720 301 672 q 331 623 331 542 q 331 469 311 388 q 291 308 266 232 q 242 157 222 92 q 202 26 202 -17 q 202 -34 208 -45 q 213 -56 230 -56 z"},"\"":{"x_min":0,"x_max":246,"ha":246,"o":"m 207 692 q 179 663 166 634 q 152 605 138 576 q 129 581 125 591 q 121 601 121 613 q 121 628 126 647 q 132 666 140 682 q 149 698 160 709 q 171 720 182 720 q 192 720 200 712 q 207 703 207 692 z m 327 692 q 299 663 286 634 q 272 605 258 576 q 249 581 245 591 q 241 601 241 613 q 241 628 246 647 q 252 666 260 682 q 269 698 280 709 q 291 720 302 720 q 312 720 320 712 q 327 703 327 692 z"},"7":{"x_min":0,"x_max":404,"ha":404,"o":"m 49 289 q 50 311 63 324 q 76 337 96 344 q 116 351 141 352 q 166 354 190 354 l 214 354 q 254 429 299 502 q 344 575 379 635 q 365 635 344 634 q 324 633 302 632 q 279 631 257 630 q 235 629 218 629 q 159 629 138 642 q 116 656 116 676 q 116 694 129 718 q 150 715 168 712 q 187 708 208 705 q 228 702 253 700 q 278 698 312 698 q 359 698 404 702 q 449 707 480 718 q 472 706 456 683 q 441 660 426 643 q 388 588 348 514 q 307 441 266 351 q 294 349 317 348 q 340 346 365 346 q 379 346 385 346 q 391 347 397 349 q 380 325 361 312 q 342 298 318 298 q 304 298 286 298 q 267 298 242 299 q 229 268 214 232 q 198 195 184 157 q 171 119 162 82 q 153 44 153 11 q 153 -2 156 -12 q 158 -22 165 -27 q 157 -44 146 -56 q 135 -67 124 -74 q 113 -81 102 -84 q 92 -87 85 -87 q 71 -87 61 -76 q 51 -65 51 -42 q 51 -20 62 15 q 72 50 90 95 q 109 140 134 192 q 158 244 185 299 q 171 299 153 298 q 135 297 116 296 q 97 294 79 292 q 61 291 49 289 z"},"S":{"x_min":0,"x_max":537,"ha":537,"o":"m 102 453 q 102 495 122 542 q 142 588 179 628 q 216 668 269 694 q 322 720 387 720 q 445 720 468 692 q 492 663 492 620 q 492 593 484 562 q 477 531 466 502 q 454 472 440 446 q 427 419 415 400 q 397 404 390 415 q 382 426 382 443 q 382 464 391 492 q 400 519 412 548 q 423 576 432 604 q 441 631 441 653 q 441 673 429 684 q 417 696 385 696 q 338 696 298 674 q 257 651 228 618 q 198 584 182 546 q 165 507 165 476 q 165 439 187 412 q 209 386 242 364 q 276 342 314 322 q 353 301 386 274 q 420 248 442 212 q 464 177 464 126 q 464 74 440 34 q 417 -5 380 -32 q 342 -59 296 -73 q 249 -87 203 -87 q 162 -87 124 -76 q 87 -65 58 -43 q 29 -21 12 13 q -6 47 -6 92 q -6 131 6 157 q 19 183 38 198 q 56 213 78 220 q 101 226 122 226 q 95 197 81 162 q 67 127 67 92 q 67 64 76 39 q 86 14 104 -6 q 123 -25 152 -36 q 181 -48 220 -48 q 254 -48 287 -38 q 320 -29 346 -11 q 373 7 390 34 q 406 62 406 98 q 406 141 384 172 q 361 202 327 226 q 293 251 254 273 q 215 295 181 320 q 147 345 124 376 q 102 408 102 453 z"},"}":{"x_min":0,"x_max":257,"ha":257,"o":"m 68 129 q 72 162 77 196 q 82 230 90 260 q 99 290 112 313 q 126 336 146 347 q 132 363 126 381 q 121 399 121 419 q 121 451 132 487 q 143 523 156 557 q 170 591 181 621 q 192 651 192 672 q 192 678 191 682 q 190 687 185 687 q 181 687 169 684 q 157 680 144 670 q 149 692 171 706 q 193 720 212 720 q 232 720 242 710 q 252 699 252 686 q 252 669 240 640 q 229 611 215 576 q 201 542 190 505 q 178 468 178 434 q 178 408 184 382 q 190 355 213 339 q 184 332 167 310 q 150 288 140 256 q 131 225 127 188 q 123 150 120 112 q 116 74 112 38 q 108 2 98 -26 q 89 -54 72 -70 q 55 -87 26 -87 q 6 -87 -11 -76 q -28 -65 -31 -34 q -13 -46 3 -46 q 18 -46 28 -31 q 39 -16 46 9 q 54 34 59 66 q 64 97 68 129 z"},"Z":{"x_min":0,"x_max":632,"ha":632,"o":"m 219 305 q 220 326 232 340 q 244 353 264 361 q 285 369 312 372 q 338 375 368 375 q 379 375 390 374 q 402 374 413 373 q 452 442 482 504 q 513 566 530 610 q 505 616 471 630 q 437 644 400 658 q 362 671 324 682 q 285 692 252 692 q 228 692 208 685 q 187 678 172 662 q 156 645 148 617 q 139 589 139 548 q 139 526 143 513 q 114 518 102 536 q 89 555 89 585 q 89 652 140 686 q 192 720 282 720 q 334 720 380 710 q 426 700 468 688 q 510 676 550 666 q 589 656 628 656 q 638 656 645 656 q 652 656 660 658 q 633 635 610 623 q 588 571 555 505 q 522 439 480 367 q 510 364 536 361 q 563 358 586 358 q 578 346 569 340 q 560 333 546 330 q 531 326 510 325 q 488 324 454 323 q 404 242 348 167 q 293 92 236 38 q 301 18 366 0 q 430 -18 481 -18 q 521 -18 552 -2 q 535 -49 509 -68 q 483 -87 447 -87 q 421 -87 390 -78 q 360 -70 328 -58 q 295 -45 262 -29 q 228 -13 195 2 q 161 -24 129 -39 q 97 -54 67 -54 q 45 -54 28 -46 q 11 -39 -1 -28 q -13 -16 -19 -2 q -25 12 -25 26 q -25 47 -8 62 q 10 78 52 78 q 81 78 116 70 q 150 63 188 52 q 236 103 286 174 q 337 245 383 321 q 364 321 348 320 q 333 319 318 318 q 303 316 288 314 q 272 313 253 310 z m 62 -27 q 82 -27 105 -14 q 128 -2 154 20 q 121 34 91 43 q 61 52 38 52 q 16 52 8 45 q 1 38 1 28 q 1 20 6 10 q 10 0 18 -8 q 26 -16 37 -22 q 48 -27 62 -27 z"},"x":{"x_min":0,"x_max":419,"ha":419,"o":"m 56 -52 q 50 -59 44 -59 q 34 -59 34 -44 q 34 -35 46 -15 q 58 5 78 32 q 99 59 126 91 q 153 123 182 156 q 179 179 176 200 q 174 221 169 237 q 164 253 157 262 q 150 272 138 272 q 120 272 105 260 q 90 248 76 228 q 62 208 48 182 q 35 157 19 129 l 10 145 q 24 172 36 201 q 48 230 64 254 q 79 279 100 295 q 122 311 154 311 q 193 311 211 284 q 229 256 237 216 q 260 240 282 262 q 303 283 321 298 q 339 314 352 323 q 366 332 373 332 q 378 332 388 329 q 398 326 398 321 q 389 321 374 310 q 358 298 337 278 q 316 259 292 232 q 268 206 243 177 q 246 147 248 117 q 250 87 254 63 q 259 39 269 24 q 279 10 297 10 q 315 10 336 26 q 356 41 376 64 q 395 86 412 112 q 428 139 438 161 l 448 151 q 437 119 418 87 q 399 55 376 30 q 352 5 325 -10 q 298 -26 272 -26 q 250 -26 235 -14 q 220 -3 210 16 q 201 35 196 60 q 190 84 187 111 q 145 61 110 16 q 74 -29 56 -52 z"},")":{"x_min":0,"x_max":269,"ha":269,"o":"m -71 -63 q -19 -26 28 27 q 74 80 110 148 q 145 216 166 298 q 186 380 186 475 q 186 538 172 599 q 159 660 115 720 q 135 715 156 694 q 178 672 196 636 q 214 599 226 548 q 237 498 237 435 q 237 360 220 292 q 204 224 178 166 q 152 108 120 61 q 88 14 56 -18 q 24 -51 -4 -69 q -32 -87 -49 -87 q -56 -85 -62 -78 q -67 -71 -71 -63 z"},"&":{"x_min":0,"x_max":617,"ha":617,"o":"m 369 245 q 370 266 378 280 q 387 293 401 301 q 415 309 434 312 q 452 315 473 315 q 518 315 556 307 q 595 299 626 298 q 615 275 604 270 q 594 266 584 266 q 567 265 552 265 q 538 265 526 265 q 519 196 488 132 q 457 69 410 20 q 364 -28 305 -58 q 246 -87 182 -87 q 137 -87 101 -72 q 65 -58 40 -33 q 14 -8 0 25 q -13 58 -13 95 q -13 141 7 186 q 27 230 62 266 q 98 301 145 325 q 192 349 246 354 q 207 386 188 428 q 170 470 170 512 q 170 552 186 589 q 201 626 228 655 q 256 684 294 702 q 332 719 377 719 q 486 719 486 613 q 486 585 479 558 q 472 530 460 508 q 449 487 436 474 q 422 460 410 460 q 399 460 389 470 q 379 479 373 492 q 408 523 432 556 q 455 590 455 629 q 455 660 438 680 q 422 699 387 699 q 352 699 325 682 q 298 665 280 637 q 262 609 252 572 q 243 535 243 495 q 243 477 246 457 q 248 437 254 417 q 260 397 272 378 q 283 359 301 344 q 251 336 210 310 q 169 285 140 250 q 111 214 96 173 q 80 132 80 92 q 80 67 87 42 q 94 16 109 -5 q 124 -26 148 -40 q 173 -53 208 -53 q 261 -53 311 -26 q 361 1 400 46 q 440 90 466 147 q 493 204 500 264 q 484 263 472 262 q 459 261 446 260 q 434 258 422 256 q 409 253 393 250 z"},"_":{"x_min":0,"x_max":846,"ha":846,"o":"m -30 -66 q -27 -41 0 -25 q 28 -9 74 0 q 121 9 184 12 q 248 16 322 16 q 371 16 409 14 q 447 13 478 12 q 509 10 536 8 q 562 5 588 3 q 614 1 642 0 q 671 -2 706 -2 q 685 -16 663 -25 q 641 -34 620 -39 q 599 -44 579 -46 q 559 -47 543 -47 q 442 -47 372 -48 q 302 -48 252 -48 q 203 -49 168 -50 q 134 -50 104 -52 q 74 -54 43 -58 q 12 -61 -30 -66 z"},"v":{"x_min":0,"x_max":408,"ha":408,"o":"m 439 148 q 417 98 390 81 q 364 64 340 64 q 307 64 285 88 q 263 112 256 161 q 238 125 214 89 q 191 53 166 24 q 141 -4 115 -22 q 89 -39 65 -39 q 33 -39 22 -8 q 10 22 10 71 q 10 73 11 102 q 12 132 16 202 q 18 229 22 239 q 26 249 48 249 q 65 249 70 242 q 74 236 74 217 q 74 184 70 140 q 65 95 65 56 q 65 27 70 14 q 74 0 88 0 q 106 0 128 21 q 151 42 174 74 q 196 107 216 146 q 237 184 253 219 q 254 253 258 274 q 262 296 268 309 q 274 322 282 327 q 290 332 299 332 q 318 332 326 318 q 335 305 335 294 q 335 284 330 274 q 324 265 318 250 q 311 236 306 214 q 300 193 300 160 q 300 148 302 134 q 303 121 308 110 q 313 98 322 91 q 331 84 347 84 q 368 84 387 100 q 406 116 426 158 z"},"O":{"x_min":0,"x_max":624,"ha":624,"o":"m 484 707 q 441 707 396 682 q 352 658 310 616 q 269 574 232 518 q 195 462 168 400 q 141 338 125 273 q 109 208 109 147 q 109 107 116 70 q 124 34 140 6 q 157 -21 182 -37 q 207 -53 243 -53 q 290 -53 332 -28 q 374 -3 410 39 q 445 81 474 137 q 502 193 522 255 q 542 317 553 382 q 564 446 564 505 q 564 526 562 550 q 559 574 554 594 q 549 615 540 629 q 532 643 519 643 q 501 643 480 620 q 458 597 439 564 q 420 531 405 494 q 390 457 384 429 q 358 435 347 448 q 336 461 336 478 q 336 505 355 538 q 374 571 402 600 q 429 630 460 650 q 492 670 517 670 q 543 670 560 651 q 576 632 586 603 q 595 574 598 540 q 602 506 602 477 q 602 386 584 309 q 567 232 537 169 q 507 106 468 58 q 429 11 386 -22 q 342 -54 298 -70 q 253 -87 213 -87 q 170 -87 135 -70 q 100 -52 74 -20 q 49 13 35 59 q 21 105 21 161 q 21 225 38 292 q 56 358 86 420 q 116 482 156 536 q 197 591 243 632 q 289 672 338 696 q 387 719 435 719 q 472 719 495 707 z"},"(":{"x_min":0,"x_max":259,"ha":259,"o":"m 354 720 q 288 673 240 608 q 193 543 163 469 q 133 395 119 316 q 105 237 105 162 q 105 87 118 28 q 130 -30 152 -66 q 148 -74 143 -79 q 138 -84 132 -87 q 114 -76 98 -50 q 82 -24 71 13 q 60 50 54 95 q 47 140 47 189 q 47 269 64 339 q 80 409 107 468 q 134 527 168 574 q 201 621 235 654 q 269 686 300 703 q 332 720 354 720 z"},"C":{"x_min":0,"x_max":535,"ha":535,"o":"m 436 689 q 400 689 362 664 q 323 639 286 596 q 248 554 215 498 q 182 443 156 382 q 131 321 116 258 q 102 196 102 140 q 102 103 110 68 q 118 33 135 6 q 152 -21 178 -37 q 205 -53 243 -53 q 283 -53 323 -36 q 363 -18 399 12 q 435 41 465 80 q 495 119 515 162 l 529 152 q 504 103 471 60 q 438 16 399 -16 q 360 -49 314 -68 q 269 -87 219 -87 q 166 -87 128 -66 q 91 -45 68 -10 q 44 24 33 68 q 22 111 22 157 q 22 223 40 290 q 57 358 86 420 q 116 482 156 537 q 196 592 242 632 q 288 672 336 696 q 385 719 433 719 q 474 719 500 700 q 525 680 525 633 q 525 604 514 567 q 504 530 488 498 q 471 465 450 442 q 430 420 409 420 q 401 420 392 425 q 384 430 378 443 q 393 460 412 486 q 431 511 447 539 q 463 567 474 595 q 485 623 485 644 q 485 664 474 676 q 462 689 436 689 z"},"W":{"x_min":0,"x_max":907,"ha":907,"o":"m 526 395 q 559 395 572 378 q 586 361 586 346 q 586 326 568 286 q 551 246 530 196 q 510 145 492 90 q 475 35 475 -14 q 475 -33 480 -44 q 485 -56 503 -56 q 531 -56 568 -27 q 605 2 644 50 q 684 99 722 162 q 759 224 789 291 q 819 358 837 424 q 855 489 855 544 q 855 594 840 617 q 825 640 800 648 q 814 672 830 683 q 845 694 858 694 q 879 694 899 667 q 919 640 919 583 q 919 528 898 457 q 877 386 842 312 q 808 238 763 166 q 718 94 670 38 q 621 -18 572 -52 q 524 -87 483 -87 q 469 -87 454 -82 q 438 -78 426 -69 q 413 -60 405 -46 q 397 -32 397 -12 q 397 3 402 26 q 408 49 417 78 q 391 42 365 12 q 339 -19 312 -40 q 286 -62 260 -74 q 234 -87 210 -87 q 199 -87 184 -84 q 170 -81 156 -72 q 143 -63 134 -48 q 124 -32 124 -7 q 124 30 144 94 q 163 157 187 234 q 211 311 230 394 q 250 477 250 552 q 250 580 249 605 q 248 630 242 650 q 236 669 224 680 q 212 692 190 692 q 162 692 142 675 q 123 658 110 632 q 98 607 92 578 q 87 549 87 524 q 87 491 96 470 q 57 470 41 492 q 25 513 25 542 q 25 573 40 604 q 55 636 80 662 q 105 687 138 704 q 171 720 208 720 q 271 720 301 672 q 331 623 331 542 q 331 469 311 389 q 291 309 266 233 q 242 157 222 92 q 202 26 202 -17 q 202 -36 208 -46 q 214 -56 232 -56 q 257 -56 288 -32 q 318 -8 350 31 q 381 70 410 120 q 440 169 464 219 q 489 269 506 316 q 522 362 526 395 z"},"A":{"x_min":0,"x_max":593,"ha":593,"o":"m -8 283 q 3 312 30 324 q 58 335 96 335 q 113 335 130 333 q 148 331 168 328 q 206 385 246 441 q 286 497 324 546 q 361 594 394 632 q 427 670 450 692 q 479 720 498 720 q 519 720 551 688 q 541 680 526 645 q 510 610 492 558 q 475 507 458 444 q 441 382 427 318 q 413 255 404 196 q 395 138 395 94 q 395 56 404 35 q 412 14 432 14 q 458 14 491 50 q 524 86 563 162 l 573 152 q 558 112 538 78 q 519 45 496 21 q 474 -3 450 -16 q 425 -30 400 -30 q 358 -30 340 6 q 322 43 322 104 q 322 168 339 253 q 294 260 258 264 q 222 269 191 273 q 143 185 99 94 q 55 2 17 -87 q -6 -74 -12 -60 q -17 -45 -17 -35 q -17 -14 -5 18 q 7 51 28 92 q 48 133 76 180 q 103 228 135 278 q 98 281 72 282 q 46 283 27 283 z m 466 657 q 443 643 414 612 q 385 580 353 536 q 321 492 286 436 q 252 381 217 319 q 251 311 284 303 q 317 295 346 288 q 357 337 372 388 q 386 439 402 488 q 417 536 434 579 q 451 622 466 657 z"},"f":{"x_min":0,"x_max":313,"ha":313,"o":"m 346 152 q 333 122 316 100 q 300 79 282 65 q 265 51 248 44 q 230 38 215 38 q 197 38 178 47 q 158 56 141 71 q 141 8 128 -54 q 114 -117 92 -167 q 70 -217 42 -248 q 15 -280 -13 -280 q -21 -280 -30 -276 q -40 -273 -48 -264 q -57 -254 -62 -237 q -68 -220 -68 -192 q -68 -154 -56 -94 q -45 -34 -24 37 q -4 108 24 186 q 51 265 84 341 q 116 417 152 486 q 187 554 223 606 q 259 658 294 689 q 329 720 360 720 q 381 720 388 707 q 394 694 394 676 q 394 633 370 582 q 346 531 308 480 q 270 429 222 382 q 175 335 127 302 q 122 290 118 278 q 113 265 108 252 q 119 250 125 240 q 131 231 133 220 q 138 186 144 158 q 149 129 158 108 q 167 87 182 76 q 196 64 220 64 q 255 64 279 89 q 303 114 331 162 z m 115 60 q 115 91 107 116 q 99 142 81 177 q 62 121 46 67 q 30 13 18 -34 q 7 -82 0 -120 q -6 -159 -6 -184 q -6 -207 -1 -220 q 4 -232 13 -232 q 22 -232 34 -218 q 45 -203 56 -180 q 68 -156 78 -126 q 89 -95 97 -62 q 105 -30 110 2 q 115 34 115 60 z m 341 653 q 321 653 298 628 q 274 604 248 562 q 222 519 195 462 q 168 406 143 343 q 191 388 230 434 q 270 480 298 520 q 325 561 340 592 q 355 624 355 639 q 355 653 341 653 z"},"Q":{"x_min":0,"x_max":694,"ha":694,"o":"m 431 720 q 528 720 581 654 q 634 589 634 477 q 634 414 617 345 q 600 276 570 211 q 540 146 498 90 q 457 34 408 -4 q 442 -23 478 -36 q 514 -50 556 -50 q 578 -50 588 -46 q 599 -43 614 -38 q 606 -65 594 -81 q 582 -97 568 -106 q 555 -114 542 -116 q 528 -119 516 -119 q 493 -119 472 -112 q 450 -105 430 -94 q 411 -82 392 -67 q 374 -52 356 -37 q 332 -49 307 -56 q 282 -63 256 -63 q 221 -63 200 -52 q 178 -42 166 -28 q 154 -13 150 2 q 146 17 146 25 q 146 42 162 60 q 179 77 219 77 q 261 77 299 58 q 337 38 378 13 q 423 53 458 116 q 492 178 516 248 q 539 318 552 387 q 564 456 564 509 q 564 550 556 584 q 549 618 533 642 q 517 666 492 680 q 467 693 432 693 q 384 693 341 668 q 298 644 262 602 q 225 560 196 505 q 167 450 146 389 q 126 328 115 264 q 104 201 104 144 q 104 123 106 102 q 107 81 112 60 q 89 60 74 72 q 59 83 50 102 q 42 122 38 147 q 35 172 35 199 q 35 261 50 324 q 64 387 90 445 q 115 503 152 553 q 188 603 232 640 q 276 677 326 698 q 377 720 431 720 z m 256 -38 q 277 -38 296 -32 q 316 -27 334 -17 q 303 10 272 30 q 242 51 209 51 q 186 51 179 42 q 172 32 172 24 q 172 17 176 6 q 179 -4 188 -14 q 198 -24 214 -31 q 230 -38 256 -38 z"},"w":{"x_min":0,"x_max":618,"ha":618,"o":"m 649 148 q 627 98 600 81 q 574 64 550 64 q 519 64 498 85 q 476 106 466 148 q 447 113 424 80 q 402 46 378 20 q 354 -7 330 -23 q 305 -39 282 -39 q 266 -39 256 -32 q 245 -24 239 -10 q 233 3 230 20 q 228 38 228 58 q 228 78 230 102 q 232 125 235 148 q 218 115 200 83 q 182 51 162 26 q 141 1 120 -14 q 98 -30 75 -30 q 58 -30 44 -22 q 31 -14 21 0 q 11 14 6 32 q 0 50 0 71 q 0 99 10 138 q 19 178 32 213 q 46 248 62 273 q 77 298 88 298 q 91 298 97 296 q 103 295 109 292 q 115 290 120 286 q 125 282 125 278 q 117 265 106 242 q 94 218 84 190 q 73 161 66 132 q 58 102 58 77 q 58 71 59 60 q 60 48 64 37 q 67 26 74 18 q 81 10 93 10 q 110 10 129 27 q 148 44 168 72 q 187 99 206 133 q 226 167 243 201 q 249 232 254 250 q 258 268 262 277 q 266 286 271 288 q 276 291 283 291 q 296 291 304 286 q 312 280 312 269 q 312 266 310 258 q 304 240 299 214 q 294 189 290 160 q 287 132 284 103 q 282 74 282 49 q 282 0 304 0 q 319 0 339 19 q 359 38 380 68 q 401 97 422 134 q 442 170 459 205 q 459 244 464 268 q 468 293 475 308 q 482 322 491 327 q 500 332 509 332 q 528 332 536 318 q 545 305 545 294 q 545 284 540 274 q 534 265 528 250 q 521 236 516 214 q 510 193 510 160 q 510 148 512 134 q 513 121 518 110 q 523 98 532 91 q 541 84 557 84 q 578 84 597 100 q 616 116 636 158 z"},"-":{"x_min":0,"x_max":485,"ha":485,"o":"m 26 144 q 32 159 48 168 q 65 178 90 184 q 115 189 147 191 q 179 193 215 193 q 269 193 315 190 q 361 186 383 184 q 358 166 330 160 q 301 155 280 155 l 185 155 q 161 155 142 154 q 123 154 105 153 q 87 152 68 150 q 50 148 26 144 z"},"E":{"x_min":0,"x_max":499,"ha":499,"o":"m 384 696 q 349 696 322 680 q 296 664 278 636 q 260 609 250 572 q 241 536 241 495 q 241 477 244 457 q 246 437 252 417 q 258 397 270 378 q 281 359 299 344 q 249 336 208 310 q 167 285 138 250 q 109 214 94 173 q 78 132 78 92 q 78 67 85 42 q 92 16 107 -5 q 122 -26 146 -40 q 171 -53 206 -53 q 246 -53 286 -36 q 326 -18 362 12 q 398 41 428 80 q 458 119 478 162 l 492 152 q 466 101 432 58 q 399 14 360 -18 q 321 -51 276 -69 q 230 -87 180 -87 q 135 -87 99 -72 q 63 -58 38 -33 q 12 -8 -2 25 q -15 58 -15 95 q -15 141 5 186 q 25 230 60 266 q 96 301 143 325 q 190 349 244 354 q 205 386 186 428 q 168 470 168 512 q 168 552 184 589 q 199 626 226 655 q 254 684 292 702 q 329 719 374 719 q 430 719 459 691 q 488 663 488 611 q 488 583 480 556 q 472 529 460 508 q 448 486 434 473 q 420 460 408 460 q 397 460 387 470 q 377 479 371 492 q 406 523 430 558 q 455 592 455 631 q 455 662 437 679 q 419 696 384 696 z"},"s":{"x_min":0,"x_max":346,"ha":346,"o":"m -20 80 q -20 110 -12 126 q -3 142 8 150 q 19 158 30 162 q 40 165 44 170 q 74 203 99 239 q 124 275 143 315 l 143 327 q 143 364 156 380 q 168 395 182 395 q 198 395 198 382 q 198 377 195 366 q 192 355 192 338 q 192 313 200 286 q 208 258 218 228 q 228 197 236 164 q 244 131 244 97 q 244 70 238 48 q 273 54 304 79 q 335 104 364 161 l 373 151 q 354 96 316 68 q 278 39 233 32 q 217 -11 182 -31 q 148 -51 105 -51 q 70 -51 46 -39 q 22 -27 8 -8 q -7 11 -14 34 q -20 57 -20 80 z m 179 96 q 179 144 168 190 q 156 235 148 277 q 125 239 100 204 q 74 170 51 147 q 66 115 98 87 q 129 59 175 49 q 177 59 178 70 q 179 81 179 96 z m 107 -16 q 113 -16 122 -14 q 130 -13 139 -8 q 148 -3 156 6 q 164 16 170 33 q 128 41 96 66 q 63 90 47 116 q 25 115 25 81 q 25 63 30 46 q 36 28 46 14 q 57 1 72 -8 q 87 -16 107 -16 z"},">":{"x_min":0,"x_max":325,"ha":325,"o":"m 56 316 q 72 294 94 270 q 116 247 140 226 q 165 205 189 188 q 213 170 233 160 l 246 158 q 242 143 224 124 q 205 104 180 86 q 156 68 130 56 q 105 44 87 44 q 77 44 70 50 q 63 55 58 60 q 92 73 116 84 q 139 94 156 104 q 174 114 188 124 q 203 135 220 147 q 195 160 166 177 q 136 194 110 214 q 85 233 68 254 q 51 274 51 294 q 51 299 52 306 q 54 314 56 316 z"},"l":{"x_min":0,"x_max":237,"ha":237,"o":"m 347 646 q 347 624 338 589 q 328 554 310 512 q 293 471 268 425 q 244 379 214 334 q 185 290 151 250 q 117 210 81 180 q 75 153 72 128 q 68 102 68 79 q 68 2 112 2 q 132 2 152 16 q 172 30 190 52 q 209 75 226 104 q 243 133 256 162 l 271 154 q 231 68 184 19 q 137 -30 83 -30 q 40 -30 22 -1 q 3 28 3 73 q 3 121 22 188 q 40 254 68 326 q 97 398 133 468 q 169 539 204 595 q 238 651 268 686 q 297 720 314 720 q 322 720 328 712 q 334 705 338 694 q 343 682 345 669 q 347 656 347 646 z m 309 639 q 302 639 287 621 q 272 603 252 572 q 233 541 210 499 q 187 457 165 410 q 143 363 124 312 q 104 262 90 214 q 133 258 174 318 q 215 378 246 438 q 278 497 297 548 q 316 598 316 623 q 316 633 314 636 q 311 639 309 639 z"},"8":{"x_min":0,"x_max":528,"ha":528,"o":"m 19 77 q 19 120 38 155 q 58 190 88 220 q 119 251 158 279 q 196 307 235 336 q 214 359 194 384 q 173 408 158 434 q 142 461 132 490 q 123 520 123 554 q 123 599 140 630 q 156 661 182 681 q 209 701 242 710 q 275 719 308 719 q 376 719 418 682 q 459 646 459 575 q 459 538 448 507 q 436 476 416 448 q 397 421 371 396 q 345 372 316 349 q 339 324 362 298 q 384 273 402 245 q 420 217 431 186 q 442 156 442 122 q 442 74 420 35 q 399 -4 364 -31 q 330 -58 285 -72 q 240 -87 194 -87 q 143 -87 110 -71 q 76 -55 56 -30 q 36 -6 28 22 q 19 51 19 77 z m 80 80 q 80 50 90 26 q 101 3 118 -14 q 136 -30 158 -39 q 181 -48 204 -48 q 231 -48 259 -36 q 287 -24 310 -2 q 332 19 346 50 q 360 80 360 118 q 360 146 352 171 q 344 196 330 219 q 316 242 298 264 q 280 286 261 307 q 226 282 194 256 q 161 231 136 204 q 111 177 96 146 q 80 116 80 80 z m 201 567 q 201 510 228 466 q 254 421 290 379 q 337 419 369 466 q 401 514 401 576 q 401 635 374 664 q 346 692 309 692 q 292 692 273 686 q 254 679 238 664 q 222 649 212 625 q 201 601 201 567 z"},"\\":{"x_min":0,"x_max":561,"ha":561,"o":"m 154 720 q 178 720 194 704 q 210 689 215 675 q 228 640 242 588 q 256 535 270 472 q 284 408 298 338 q 313 268 327 200 q 341 132 354 69 q 367 6 380 -43 q 392 -92 404 -124 q 415 -156 425 -162 q 382 -155 352 -113 q 323 -71 298 22 q 288 56 276 118 q 263 179 248 252 q 234 324 220 401 q 206 478 193 544 q 180 610 170 658 q 159 706 154 720 z"},"e":{"x_min":0,"x_max":334,"ha":334,"o":"m 302 299 q 302 261 280 228 q 257 194 221 168 q 185 142 141 126 q 97 109 54 105 q 52 95 51 86 q 50 77 50 69 q 50 54 54 39 q 57 24 66 12 q 75 0 90 -8 q 106 -15 129 -15 q 161 -15 193 -1 q 225 13 254 38 q 283 62 308 94 q 334 126 353 162 l 365 153 q 345 108 316 72 q 287 35 254 10 q 220 -16 182 -30 q 145 -44 108 -44 q 47 -44 16 -10 q -14 23 -14 72 q -14 102 -4 135 q 7 168 26 200 q 44 232 68 261 q 93 290 122 312 q 150 334 180 347 q 210 360 240 360 q 263 360 282 348 q 302 336 302 299 z m 237 329 q 213 329 186 310 q 159 292 134 262 q 109 233 89 196 q 69 160 59 124 q 86 133 120 150 q 154 168 185 192 q 216 216 237 245 q 258 274 258 306 q 258 317 254 323 q 250 329 237 329 z"},"b":{"x_min":0,"x_max":395,"ha":395,"o":"m 105 270 q 100 262 92 240 q 84 217 76 188 q 69 158 63 124 q 57 90 57 59 q 57 17 70 -9 q 82 -35 112 -35 q 141 -35 172 -12 q 202 12 222 49 q 185 68 167 104 q 149 140 149 178 q 149 226 174 255 q 199 284 233 284 q 262 284 279 260 q 296 237 296 192 q 296 159 287 124 q 278 89 261 56 q 273 53 287 53 q 314 53 334 64 q 354 74 369 90 q 384 106 395 126 q 406 145 415 162 l 427 149 q 413 114 396 92 q 379 70 360 58 q 342 45 322 40 q 303 35 284 35 q 267 35 252 38 q 225 -8 186 -40 q 146 -73 93 -73 q 41 -73 16 -39 q -10 -5 -10 53 q -10 103 8 172 q 25 240 52 314 q 80 387 114 459 q 149 531 184 588 q 218 644 249 679 q 280 714 301 714 q 318 714 326 693 q 333 672 333 651 q 333 616 314 562 q 295 508 264 452 q 232 396 190 346 q 149 297 105 270 z m 295 633 q 287 633 264 604 q 242 575 214 528 q 187 482 160 424 q 133 366 116 309 q 150 337 183 382 q 216 428 242 476 q 268 523 284 564 q 299 606 299 625 q 299 633 295 633 z m 184 173 q 184 146 195 116 q 206 86 232 69 q 243 92 249 118 q 255 143 255 170 q 255 205 246 225 q 236 245 222 245 q 207 245 196 224 q 184 204 184 173 z"},"%":{"x_min":0,"x_max":699,"ha":699,"o":"m 317 565 q 317 533 306 495 q 295 457 276 424 q 256 391 229 369 q 202 347 170 347 q 149 347 134 356 q 118 365 108 380 q 98 395 93 414 q 88 434 88 455 q 88 488 98 526 q 109 564 128 596 q 147 627 174 648 q 201 669 233 669 q 271 669 294 641 q 317 613 317 565 z m 233 633 q 211 633 194 613 q 177 593 166 564 q 155 535 149 503 q 143 471 143 447 q 143 419 152 402 q 160 385 176 385 q 194 385 210 404 q 226 422 238 450 q 251 479 258 512 q 265 544 265 573 q 265 599 258 616 q 250 633 233 633 z m 582 720 q 577 706 556 664 q 535 622 506 564 q 477 506 442 439 q 406 372 372 308 q 337 243 306 187 q 274 131 253 97 q 201 14 156 -36 q 111 -87 68 -87 q 91 -64 127 -11 q 163 42 205 111 q 247 180 292 260 q 336 339 376 416 q 416 493 448 561 q 480 629 498 675 q 501 682 510 690 q 519 698 531 704 q 543 711 556 716 q 570 720 582 720 z m 640 218 q 640 186 629 148 q 618 110 598 77 q 579 44 552 22 q 525 0 493 0 q 472 0 456 9 q 441 18 431 33 q 421 48 416 68 q 411 87 411 108 q 411 141 422 179 q 432 217 451 248 q 470 280 497 301 q 524 322 556 322 q 594 322 617 294 q 640 266 640 218 z m 556 286 q 534 286 517 266 q 500 246 489 217 q 478 188 472 156 q 466 124 466 101 q 466 72 474 55 q 483 38 499 38 q 517 38 533 56 q 549 75 562 104 q 574 132 581 164 q 588 197 588 226 q 588 252 580 269 q 573 286 556 286 z"},"m":{"x_min":0,"x_max":647,"ha":647,"o":"m 259 -22 q 253 -22 244 -21 q 236 -20 228 -18 q 219 -15 214 -11 q 208 -7 208 -2 q 208 5 218 32 q 228 59 240 94 q 251 128 261 165 q 271 202 271 228 q 271 245 266 256 q 260 266 246 266 q 224 266 193 239 q 162 212 130 170 q 97 128 67 76 q 37 24 19 -27 q 12 -27 2 -25 q -7 -23 -15 -20 q -23 -17 -29 -14 q -35 -10 -35 -6 q -35 0 -24 30 q -14 60 -1 100 q 12 141 23 184 q 34 228 34 261 q 40 268 53 275 q 66 282 80 282 q 107 282 107 256 q 107 242 100 211 q 92 180 81 142 q 101 174 126 208 q 152 241 180 269 q 207 297 236 314 q 265 332 292 332 q 323 332 334 310 q 346 287 346 256 q 346 237 342 216 q 339 196 334 176 q 330 157 324 141 q 319 125 315 115 q 331 143 349 171 q 367 199 388 220 q 409 242 432 256 q 455 269 481 269 q 513 269 526 250 q 538 231 538 205 q 538 185 532 162 q 526 140 520 118 q 513 95 507 74 q 501 54 501 38 q 501 24 508 14 q 514 4 531 4 q 552 4 571 19 q 590 34 607 58 q 624 81 638 108 q 653 136 665 162 l 677 148 q 665 116 648 84 q 630 53 608 27 q 587 1 560 -15 q 534 -31 504 -31 q 469 -31 453 -10 q 437 12 437 42 q 437 60 442 79 q 446 98 452 116 q 458 135 462 152 q 467 169 467 184 q 467 204 458 212 q 449 220 438 220 q 413 220 384 182 q 354 143 307 71 q 291 47 280 22 q 269 -2 259 -22 z"},"#":{"x_min":0,"x_max":669,"ha":669,"o":"m 36 274 q 37 292 54 305 q 70 318 98 326 q 125 334 162 338 q 199 342 241 343 q 264 449 280 534 q 296 619 308 675 q 311 689 318 701 q 325 713 353 720 q 350 707 344 672 q 337 636 328 585 q 318 534 306 472 q 295 410 282 344 l 286 344 q 318 344 349 343 q 380 342 410 340 q 433 447 450 532 q 466 618 478 675 q 481 689 488 701 q 495 713 523 720 q 520 707 514 671 q 507 635 497 583 q 487 531 475 468 q 463 405 450 338 q 507 335 558 331 q 608 327 652 327 q 625 304 600 300 q 574 295 551 295 q 519 295 492 294 q 466 294 442 294 q 439 279 434 256 q 429 232 427 218 q 480 215 526 212 q 573 208 614 208 q 587 185 562 180 q 537 176 514 176 q 487 176 464 176 q 440 176 418 175 q 401 91 386 28 q 371 -35 354 -77 q 336 -119 314 -140 q 292 -162 262 -162 q 275 -146 289 -114 q 303 -81 317 -36 q 331 8 345 62 q 359 115 373 172 l 247 172 q 230 89 215 26 q 200 -36 183 -78 q 166 -120 144 -141 q 123 -162 92 -162 q 105 -146 118 -114 q 132 -82 146 -38 q 160 6 174 59 q 188 112 202 170 q 168 168 134 166 q 99 164 55 160 l -1 155 q 0 174 18 187 q 35 200 64 208 q 93 216 132 220 q 170 224 215 225 q 217 236 222 257 q 226 278 229 289 q 197 287 165 285 q 133 283 93 279 z m 258 225 q 290 225 322 224 q 354 223 384 221 l 400 293 q 361 293 330 292 q 299 292 271 291 z"},",":{"x_min":0,"x_max":197,"ha":197,"o":"m 66 28 q 38 -1 24 -30 q 11 -59 -3 -88 q -12 -83 -16 -73 q -20 -63 -20 -51 q -20 -36 -14 -17 q -9 2 0 18 q 8 34 19 45 q 30 56 41 56 q 51 56 58 48 q 66 39 66 28 z"},"n":{"x_min":0,"x_max":467,"ha":467,"o":"m -38 7 q -38 11 -27 38 q -16 65 -3 102 q 10 139 22 180 q 33 220 33 253 q 39 260 52 267 q 65 274 79 274 q 106 274 106 248 q 106 232 97 195 q 88 158 74 116 q 94 146 118 178 q 142 209 169 234 q 196 260 224 276 q 253 292 282 292 q 301 292 315 284 q 329 277 338 264 q 347 251 352 235 q 356 219 356 202 q 356 179 350 158 q 343 137 336 118 q 328 99 322 80 q 315 62 315 44 q 315 23 324 14 q 332 6 345 6 q 364 6 383 20 q 402 34 420 56 q 438 79 454 106 q 471 134 485 162 l 496 149 q 480 112 462 81 q 443 50 422 28 q 400 5 376 -8 q 351 -20 323 -20 q 288 -20 270 -2 q 253 16 253 44 q 253 59 258 76 q 262 93 268 111 q 273 129 278 147 q 282 165 282 183 q 282 211 270 222 q 259 232 242 232 q 211 232 179 206 q 147 180 117 142 q 87 103 60 60 q 34 18 15 -15 q -1 -15 -16 -10 q -30 -4 -38 7 z"},"h":{"x_min":0,"x_max":477,"ha":477,"o":"m 247 39 q 247 55 252 74 q 257 92 262 112 q 268 132 273 152 q 278 172 278 190 q 278 216 267 227 q 256 238 240 238 q 215 238 195 218 q 175 197 158 166 q 142 136 128 100 q 114 64 100 34 q 87 3 74 -18 q 61 -38 47 -38 q 38 -38 30 -29 q 22 -20 17 -6 q 12 9 9 28 q 6 46 6 66 q 6 114 22 180 q 38 247 64 319 q 90 391 123 462 q 156 532 189 588 q 222 645 252 680 q 283 714 305 714 q 314 714 320 708 q 327 702 330 692 q 334 683 336 672 q 338 661 338 651 q 338 628 329 596 q 320 563 304 526 q 289 490 268 452 q 246 414 220 380 q 195 345 166 316 q 137 288 108 270 q 99 248 92 222 q 85 196 80 170 q 76 143 74 118 q 71 93 71 73 q 71 62 72 54 q 72 46 73 39 q 91 90 112 137 q 133 184 158 220 q 184 256 214 277 q 243 298 276 298 q 297 298 312 290 q 326 282 335 270 q 344 257 348 240 q 352 224 352 208 q 352 185 346 162 q 339 140 330 119 q 322 98 316 78 q 309 58 309 40 q 309 20 318 11 q 326 2 339 2 q 356 2 377 15 q 398 28 419 50 q 440 71 460 100 q 480 129 495 162 l 508 150 q 492 113 471 82 q 450 50 425 26 q 400 3 372 -10 q 345 -24 316 -24 q 281 -24 264 -6 q 247 12 247 39 z m 300 633 q 292 633 270 606 q 249 578 222 532 q 195 487 168 428 q 140 370 121 309 q 155 337 188 382 q 221 428 247 476 q 273 523 288 564 q 304 606 304 625 q 304 633 300 633 z"},"z":{"x_min":0,"x_max":318,"ha":318,"o":"m 346 150 q 332 105 301 68 q 270 32 230 2 q 232 -6 233 -14 q 234 -23 234 -31 q 234 -76 214 -121 q 194 -166 160 -201 q 127 -236 84 -258 q 41 -280 -5 -280 q -36 -280 -54 -268 q -71 -257 -71 -229 q -71 -197 -49 -170 q -27 -143 8 -118 q 43 -92 86 -66 q 130 -41 174 -12 q 174 24 159 54 q 144 84 105 115 q 131 122 152 139 q 172 156 186 176 q 200 197 207 220 q 214 242 214 262 q 214 285 204 300 q 195 315 175 315 q 150 315 130 300 q 109 286 91 261 q 73 236 56 204 q 40 171 23 134 l 11 144 q 27 189 44 227 q 62 265 82 293 q 103 321 129 337 q 155 353 189 353 q 223 353 248 331 q 272 309 272 271 q 272 244 262 220 q 252 195 236 175 q 219 155 198 138 q 176 122 154 111 q 206 71 224 21 q 262 50 292 84 q 321 119 335 162 z m -12 -251 q 6 -251 36 -236 q 65 -222 94 -194 q 123 -167 146 -127 q 168 -87 173 -35 q 133 -61 94 -83 q 56 -105 26 -127 q -5 -149 -24 -171 q -43 -193 -43 -218 q -43 -235 -34 -243 q -26 -251 -12 -251 z"},"B":{"x_min":0,"x_max":609,"ha":609,"o":"m 564 561 q 564 512 542 478 q 521 443 488 420 q 455 398 414 385 q 374 372 335 366 q 409 361 454 344 q 499 328 523 304 q 547 281 555 255 q 563 229 563 205 q 563 156 542 116 q 520 75 484 42 q 448 10 402 -14 q 357 -38 308 -54 q 260 -71 214 -79 q 167 -87 130 -87 q 75 -87 47 -68 q 19 -50 19 -7 q 19 -4 24 -4 q 27 -4 32 -6 q 38 -7 48 -9 q 59 -11 76 -12 q 92 -14 118 -14 q 204 -14 277 6 q 350 26 403 59 q 456 92 486 135 q 516 178 516 223 q 516 264 492 288 q 469 313 432 326 q 396 340 352 344 q 307 349 264 349 q 244 349 225 348 q 206 348 189 348 q 166 267 144 186 q 122 104 99 26 q 74 26 57 40 q 40 54 40 74 q 40 86 45 102 q 50 118 54 131 q 59 147 70 184 q 82 220 98 268 q 115 316 134 372 q 154 428 176 485 q 198 542 221 596 q 244 649 266 692 q 234 686 210 677 q 187 668 170 660 q 154 651 144 644 q 133 638 128 638 q 120 638 108 648 q 96 657 96 665 q 121 675 146 685 q 172 695 200 703 q 229 711 262 716 q 294 720 333 720 q 366 720 406 714 q 447 709 482 692 q 517 676 540 644 q 564 613 564 561 z m 335 699 q 330 699 326 699 q 321 699 316 698 q 280 627 250 544 q 221 461 195 371 q 250 373 305 384 q 360 394 404 417 q 448 440 476 477 q 504 514 504 569 q 504 608 490 633 q 475 658 452 673 q 428 688 398 694 q 367 699 335 699 z"},"K":{"x_min":0,"x_max":591,"ha":591,"o":"m 596 720 q 601 714 603 699 q 605 684 605 676 q 605 651 586 620 q 568 590 538 558 q 508 525 470 492 q 431 459 390 428 q 350 398 311 370 q 272 343 241 322 q 271 271 299 226 q 327 180 361 136 q 395 91 440 44 q 485 -2 549 -54 q 542 -68 527 -78 q 512 -87 495 -87 q 477 -87 453 -68 q 429 -49 403 -18 q 377 13 350 53 q 323 93 298 135 q 273 177 252 218 q 231 258 216 291 l 119 -23 q 114 -40 104 -50 q 94 -59 82 -64 q 69 -68 56 -68 q 42 -69 30 -69 q 40 -46 52 -18 q 63 11 77 49 q 91 87 108 138 q 126 189 150 258 q 173 326 204 415 q 234 504 273 619 q 276 627 281 642 q 286 656 286 668 q 286 679 281 686 q 276 692 262 692 q 238 692 216 672 q 193 652 176 623 q 158 594 148 562 q 138 529 138 504 q 138 485 143 470 q 110 470 96 486 q 83 503 83 527 q 83 561 104 596 q 124 630 154 658 q 185 685 220 702 q 255 720 283 720 q 310 720 320 705 q 329 690 329 672 q 329 661 326 650 q 324 639 321 629 l 237 357 q 251 377 274 394 q 296 411 323 433 q 356 460 394 494 q 433 528 470 566 q 507 604 540 644 q 573 683 596 720 z"},"R":{"x_min":0,"x_max":578,"ha":578,"o":"m 515 -88 q 509 -101 494 -111 q 478 -121 464 -121 q 445 -121 422 -102 q 398 -82 372 -50 q 346 -17 319 25 q 292 67 268 111 q 243 155 222 198 q 200 242 185 277 q 156 178 130 84 q 105 -10 82 -87 q 56 -87 36 -73 q 16 -59 16 -37 q 16 -26 20 -10 q 25 5 30 18 q 62 116 91 202 q 120 287 150 367 q 180 447 212 527 q 244 607 283 695 q 251 690 226 680 q 200 671 182 662 q 163 652 151 645 q 139 638 134 638 q 131 638 126 641 q 121 644 116 648 q 110 652 106 656 q 103 661 103 665 q 122 673 147 682 q 172 692 201 700 q 230 709 262 714 q 294 720 328 720 q 371 720 416 710 q 461 699 498 676 q 534 654 558 618 q 581 583 581 533 q 581 484 558 448 q 535 413 500 389 q 464 365 420 350 q 377 336 336 328 q 294 321 260 318 q 225 316 208 316 q 239 263 266 213 q 294 163 328 114 q 362 64 406 14 q 451 -36 515 -88 z m 514 554 q 514 595 498 622 q 483 650 458 667 q 433 684 401 692 q 369 699 335 699 q 300 630 266 534 q 232 437 201 332 q 255 335 311 349 q 367 363 412 390 q 457 417 486 458 q 514 498 514 554 z"},"T":{"x_min":0,"x_max":491,"ha":491,"o":"m 69 632 q 71 657 90 674 q 109 691 141 701 q 173 711 217 716 q 261 720 313 720 q 364 720 408 716 q 451 713 489 709 q 527 705 563 702 q 599 698 635 698 q 600 667 556 659 q 513 651 464 651 q 447 651 429 652 q 411 652 393 652 q 361 571 320 450 q 278 329 236 175 q 225 135 216 102 q 207 69 200 40 q 193 11 190 -14 q 186 -40 186 -65 q 186 -70 186 -76 q 186 -82 187 -87 q 142 -87 125 -68 q 108 -48 108 -16 q 108 13 120 53 q 132 93 145 130 q 162 179 186 246 q 210 312 238 383 q 265 454 294 524 q 322 595 349 652 q 297 651 259 650 q 221 649 190 647 q 158 645 130 642 q 102 638 69 632 z"},"P":{"x_min":0,"x_max":528,"ha":528,"o":"m 195 296 q 165 193 138 93 q 110 -7 87 -87 q 61 -87 40 -73 q 18 -59 18 -37 q 18 -26 22 -10 q 27 5 32 18 q 63 116 91 201 q 119 286 148 366 q 176 446 208 526 q 239 606 278 693 q 249 687 226 678 q 202 669 184 660 q 166 651 154 644 q 143 638 139 638 q 136 638 131 641 q 126 644 120 648 q 115 652 112 656 q 108 661 108 665 q 127 673 152 682 q 177 692 206 700 q 235 709 266 714 q 297 720 329 720 q 373 720 419 708 q 465 696 502 672 q 539 647 562 611 q 586 575 586 527 q 586 475 562 438 q 539 400 502 374 q 465 349 420 334 q 375 318 332 310 q 290 301 256 298 q 221 296 205 296 z m 519 544 q 519 584 504 614 q 489 643 464 662 q 439 680 406 690 q 373 699 338 699 q 301 626 266 524 q 231 423 199 312 q 254 315 311 330 q 368 345 414 374 q 460 402 490 444 q 519 487 519 544 z"},"|":{"x_min":0,"x_max":260,"ha":260,"o":"m 149 697 q 166 689 172 671 q 177 653 177 640 q 177 611 176 564 q 174 518 172 463 q 169 408 166 348 q 162 289 158 233 q 155 177 151 130 q 147 82 144 52 q 135 -35 112 -84 q 90 -132 45 -132 q 59 -94 70 -24 q 82 45 91 129 q 100 213 108 303 q 115 393 122 472 q 129 552 136 612 q 142 672 149 697 z"},"t":{"x_min":0,"x_max":286,"ha":286,"o":"m 304 301 q 194 289 128 289 l 113 289 q 90 235 74 180 q 58 125 58 71 q 58 27 71 9 q 84 -9 114 -9 q 166 -9 216 37 q 266 83 304 162 l 317 152 q 299 110 274 74 q 248 37 218 10 q 188 -16 154 -31 q 120 -46 85 -46 q -4 -46 -4 53 q -4 98 12 162 q 28 225 54 294 q 44 296 35 298 q 26 299 18 302 l 18 320 q 26 319 37 318 q 48 317 62 316 q 83 370 107 420 q 131 471 154 510 q 178 550 200 574 q 221 597 236 597 q 244 597 250 592 q 257 586 257 575 q 257 562 244 536 q 232 511 212 477 q 193 443 170 401 q 146 359 124 313 l 161 313 q 194 313 230 314 q 266 315 304 319 z"},"M":{"x_min":0,"x_max":764,"ha":764,"o":"m 743 700 q 735 682 723 646 q 711 611 698 560 q 682 498 666 420 q 650 342 637 264 q 624 185 616 114 q 607 43 607 -5 q 607 -22 608 -32 q 609 -42 611 -50 q 613 -59 616 -67 q 619 -75 622 -87 q 596 -87 580 -81 q 564 -75 555 -62 q 546 -48 543 -27 q 540 -6 540 25 q 540 145 570 280 q 601 416 640 564 q 616 533 590 488 q 563 443 537 391 q 511 339 486 283 q 460 227 438 175 q 417 123 400 78 q 382 33 372 3 q 366 1 364 0 q 362 -1 357 -1 q 330 -1 322 31 q 313 63 313 121 q 313 162 316 219 q 318 276 321 335 q 324 394 326 450 q 329 506 329 546 q 329 566 328 578 q 328 591 327 602 q 247 416 194 285 q 140 154 102 72 q 65 -11 38 -49 q 10 -87 -17 -87 q -11 -74 16 -14 q 44 47 86 142 q 129 236 184 358 q 239 479 300 616 q 303 623 306 634 q 310 646 310 657 q 310 668 304 676 q 297 683 276 683 q 244 683 220 666 q 197 649 182 622 q 167 596 160 564 q 152 531 152 501 q 152 491 152 484 q 153 477 154 470 q 140 470 130 478 q 120 486 114 498 q 107 511 104 526 q 101 540 101 552 q 101 585 119 616 q 137 646 166 669 q 194 692 228 706 q 263 720 296 720 q 320 720 339 710 q 358 701 371 676 q 384 651 390 608 q 397 564 397 496 q 397 449 394 398 q 392 346 388 294 q 384 242 380 193 q 377 144 376 102 q 389 153 412 210 q 436 267 464 324 q 491 381 522 436 q 552 490 579 536 q 606 581 628 615 q 650 649 661 666 q 675 686 684 696 q 694 707 711 707 q 725 707 743 700 z"},"g":{"x_min":0,"x_max":390,"ha":390,"o":"m 295 295 q 284 310 255 310 q 216 310 180 286 q 143 263 115 228 q 87 193 70 154 q 54 114 54 83 q 54 59 64 46 q 73 34 89 34 q 103 34 121 44 q 139 55 158 73 q 178 91 198 115 q 218 139 237 166 l 249 219 q 250 226 254 235 q 258 244 264 252 q 270 259 279 264 q 288 270 300 270 q 309 270 321 267 q 321 255 316 227 q 310 199 300 162 q 290 125 276 82 q 261 38 244 -7 q 268 5 292 22 q 317 39 338 60 q 360 82 378 108 q 396 133 407 162 l 420 152 q 408 118 386 88 q 364 59 338 35 q 312 11 284 -7 q 256 -25 233 -36 q 212 -87 190 -132 q 167 -176 142 -209 q 118 -242 92 -261 q 66 -280 38 -280 q 16 -280 -2 -266 q -20 -253 -20 -222 q -20 -192 -2 -166 q 17 -141 46 -120 q 75 -98 109 -80 q 143 -62 175 -46 q 189 -11 202 30 q 214 70 226 119 q 188 64 146 28 q 105 -9 63 -9 q 27 -9 8 18 q -12 44 -12 88 q -12 140 14 187 q 40 234 80 270 q 120 305 166 326 q 212 347 253 347 q 282 347 294 338 q 307 328 307 315 q 307 306 302 301 q 297 296 295 295 z m 35 -248 q 45 -248 59 -238 q 73 -229 90 -208 q 106 -188 125 -154 q 144 -121 164 -73 q 134 -88 106 -104 q 79 -119 58 -136 q 37 -154 24 -173 q 11 -192 11 -213 q 11 -229 18 -238 q 24 -248 35 -248 z"},"j":{"x_min":0,"x_max":219,"ha":219,"o":"m 143 317 q 143 306 138 274 q 132 242 122 198 q 111 153 96 100 q 81 46 63 -8 q 84 5 106 18 q 128 30 150 48 q 172 66 194 92 q 216 118 237 157 l 250 150 q 231 105 206 76 q 182 46 156 26 q 129 6 102 -8 q 76 -23 53 -36 q 36 -83 15 -126 q -6 -170 -30 -204 q -54 -239 -82 -260 q -110 -280 -140 -280 q -166 -280 -179 -266 q -192 -251 -192 -229 q -192 -211 -182 -190 q -173 -169 -156 -148 q -140 -127 -117 -108 q -94 -88 -66 -73 q -52 -65 -37 -58 q -22 -51 -2 -41 q 18 7 35 68 q 52 130 65 205 q 50 178 38 158 q 25 138 18 126 l 9 141 q 26 172 40 208 q 53 244 66 275 q 78 306 91 326 q 104 347 119 347 q 130 347 136 338 q 143 330 143 317 z m -149 -246 q -129 -246 -92 -203 q -54 -160 -15 -73 q -91 -111 -128 -150 q -166 -190 -166 -222 q -166 -236 -161 -241 q -156 -246 -149 -246 z m 135 437 q 119 437 107 445 q 95 453 95 469 q 95 480 102 490 q 109 500 120 507 q 130 514 143 518 q 156 522 168 522 q 182 522 192 515 q 201 508 201 494 q 201 471 180 454 q 160 437 135 437 z"},"i":{"x_min":0,"x_max":242,"ha":242,"o":"m 139 339 q 148 339 154 334 q 161 328 161 317 q 161 305 144 278 q 128 250 108 216 q 89 181 73 142 q 57 104 57 69 q 57 33 69 21 q 81 9 106 9 q 123 9 141 17 q 159 25 178 43 q 198 61 218 90 q 239 119 260 162 l 269 152 q 254 109 232 76 q 211 42 185 20 q 159 -3 130 -14 q 101 -26 72 -26 q 33 -26 14 -2 q -5 23 -5 58 q -5 77 1 105 q 7 133 18 164 q 28 196 42 227 q 55 258 71 283 q 87 308 104 324 q 122 339 139 339 z m 192 432 q 175 432 163 440 q 151 448 151 465 q 151 475 158 484 q 165 494 176 502 q 186 509 199 513 q 212 517 224 517 q 239 517 248 510 q 257 503 257 486 q 257 477 252 467 q 246 457 236 450 q 227 442 216 437 q 204 432 192 432 z"},"y":{"x_min":0,"x_max":390,"ha":390,"o":"m 321 272 q 321 260 316 232 q 310 203 300 165 q 289 127 275 82 q 261 37 243 -8 q 290 10 334 52 q 379 93 408 162 l 421 152 q 410 116 390 87 q 369 58 343 35 q 317 12 288 -5 q 260 -22 232 -35 q 212 -83 190 -128 q 168 -172 144 -206 q 120 -239 94 -260 q 69 -280 43 -280 q 17 -280 -2 -266 q -20 -253 -20 -227 q -20 -195 -4 -170 q 12 -145 39 -124 q 66 -103 101 -84 q 136 -65 174 -46 q 188 -9 202 36 q 216 82 230 137 q 214 111 196 88 q 179 64 161 47 q 143 30 124 20 q 104 10 84 10 q 69 10 55 15 q 41 20 30 30 q 18 39 11 54 q 4 70 4 91 q 4 119 14 156 q 23 194 37 228 q 51 262 66 286 q 81 309 92 309 q 95 309 102 307 q 109 305 116 302 q 124 299 130 294 q 136 290 136 286 q 127 273 116 248 q 105 224 94 196 q 84 167 77 138 q 70 110 70 90 q 70 72 78 61 q 86 50 106 50 q 120 50 137 60 q 154 71 172 89 q 189 107 206 130 q 224 153 239 178 q 242 189 244 200 q 247 212 249 224 q 250 231 254 240 q 258 249 264 256 q 270 264 279 270 q 288 275 300 275 q 309 275 321 272 z m 38 -248 q 45 -248 58 -239 q 72 -230 88 -209 q 105 -188 124 -154 q 144 -120 164 -70 q 133 -87 105 -102 q 77 -118 56 -136 q 35 -153 23 -173 q 11 -193 11 -218 q 11 -226 17 -237 q 23 -248 38 -248 z"},"@":{"x_min":0,"x_max":584,"ha":584,"o":"m 342 202 q 350 201 362 196 q 374 191 374 182 q 374 175 367 162 q 360 150 351 134 q 342 119 335 102 q 328 85 328 69 q 328 58 334 47 q 340 36 362 36 q 386 36 409 51 q 432 66 450 90 q 468 114 480 145 q 491 176 491 208 q 491 236 481 264 q 471 293 449 315 q 427 337 394 351 q 360 365 312 365 q 248 365 196 340 q 143 315 106 275 q 69 235 49 185 q 29 135 29 84 q 29 50 39 18 q 49 -14 70 -40 q 92 -65 127 -80 q 162 -96 212 -96 q 266 -96 320 -76 q 375 -56 426 -11 l 432 -19 q 394 -63 337 -92 q 280 -121 206 -121 q 150 -121 110 -104 q 69 -86 43 -56 q 17 -27 5 10 q -7 48 -7 88 q -7 145 16 200 q 39 256 81 299 q 123 342 182 368 q 241 395 312 395 q 367 395 406 380 q 446 364 472 338 q 498 313 510 280 q 523 248 523 214 q 523 177 509 140 q 495 104 472 74 q 448 45 416 27 q 385 9 349 9 q 316 9 300 25 q 285 41 285 68 q 285 74 286 78 q 286 83 287 88 q 218 -5 156 -5 q 131 -5 114 12 q 97 28 97 61 q 97 97 117 140 q 137 183 169 220 q 201 257 240 282 q 280 307 319 307 q 350 307 371 290 q 392 274 392 247 q 392 227 381 220 q 370 213 352 213 q 354 219 355 226 q 356 234 356 240 q 356 259 348 272 q 339 285 318 285 q 299 285 280 274 q 260 262 242 244 q 223 225 206 202 q 190 178 178 153 q 166 128 159 104 q 152 79 152 60 q 152 28 174 28 q 193 28 216 47 q 239 66 262 94 q 285 121 306 151 q 327 181 342 202 z"},".":{"x_min":0,"x_max":215,"ha":215,"o":"m 30 -10 q 17 -10 8 -4 q -2 3 -2 17 q -2 34 17 46 q 36 58 56 58 q 68 58 75 53 q 82 48 82 34 q 82 19 66 4 q 50 -10 30 -10 z"},"p":{"x_min":0,"x_max":392,"ha":392,"o":"m 124 -26 q 98 -26 82 -20 q 66 -14 66 -8 q 66 -4 73 -4 q 80 -3 91 -3 q 131 -3 168 17 q 205 37 233 68 q 261 100 278 139 q 295 178 295 216 q 295 248 282 270 q 268 293 238 293 q 212 293 186 276 q 160 259 138 234 q 116 209 98 182 q 81 154 72 132 q 54 57 36 -13 q 18 -83 2 -138 q -15 -194 -28 -230 q -42 -267 -51 -275 q -56 -280 -63 -280 q -69 -280 -75 -274 q -81 -269 -86 -262 q -90 -256 -92 -250 q -94 -244 -94 -242 q -82 -201 -71 -168 q -60 -136 -48 -103 q -37 -70 -26 -32 q -15 7 -4 60 q 7 112 18 184 q 30 256 42 356 q 43 365 46 369 q 49 373 61 373 q 87 373 98 358 q 109 344 109 327 q 109 313 103 277 q 97 241 86 192 q 99 217 116 243 q 134 269 156 290 q 178 312 204 326 q 230 339 259 339 q 304 339 332 308 q 360 276 360 225 q 360 186 342 142 q 325 98 294 60 q 262 23 219 -2 q 176 -26 124 -26 z"},"X":{"x_min":0,"x_max":663,"ha":663,"o":"m 597 722 q 605 717 612 702 q 620 688 620 674 q 620 654 600 614 q 580 575 546 524 q 513 472 469 412 q 425 351 376 289 q 378 225 384 164 q 389 103 400 56 q 410 8 427 -21 q 444 -50 470 -50 q 500 -50 543 8 q 586 66 640 162 l 652 152 q 623 94 598 50 q 573 5 548 -26 q 524 -56 498 -72 q 473 -87 443 -87 q 401 -87 376 -60 q 350 -32 335 10 q 320 52 314 102 q 307 153 304 198 q 260 144 217 94 q 174 43 137 2 q 100 -39 70 -69 q 41 -99 25 -112 q 27 -96 30 -84 q 34 -72 40 -62 q 46 -52 54 -42 q 63 -33 74 -21 q 138 48 194 115 q 250 182 301 246 q 299 279 298 300 q 296 321 294 342 q 293 363 292 392 q 292 420 291 468 q 290 526 288 568 q 287 610 282 638 q 276 665 264 678 q 253 692 232 692 q 207 692 188 675 q 168 658 155 632 q 142 606 135 576 q 128 545 128 519 q 128 489 136 470 q 98 470 82 490 q 67 510 67 539 q 67 570 82 602 q 98 634 124 660 q 150 687 184 704 q 218 720 255 720 q 304 720 328 690 q 353 660 363 608 q 373 557 374 488 q 374 420 375 344 q 456 456 512 552 q 567 647 597 722 z"},"*":{"x_min":0,"x_max":392,"ha":392,"o":"m 153 408 q 166 426 174 442 q 183 457 190 472 q 198 487 205 503 q 212 519 221 539 l 195 539 q 182 539 168 540 q 153 541 140 544 q 128 548 118 554 q 109 561 106 572 q 131 574 158 574 q 185 575 223 577 q 202 612 188 642 q 175 672 175 692 q 175 701 180 707 q 184 713 189 718 q 207 680 222 650 q 236 620 257 588 q 268 612 278 634 q 288 656 299 673 q 310 690 322 702 q 335 714 352 718 q 343 693 324 656 q 304 618 285 577 q 296 578 310 579 q 323 580 337 580 q 361 580 384 574 q 407 568 423 551 l 293 539 q 302 525 311 512 q 320 500 328 484 q 335 469 340 450 q 345 430 345 404 q 339 411 329 425 q 319 439 307 456 q 295 474 282 494 q 269 513 256 532 q 243 507 230 484 q 218 462 205 445 q 192 428 179 418 q 166 408 153 408 z"},"Y":{"x_min":0,"x_max":667,"ha":667,"o":"m 177 -18 q 172 -33 170 -47 q 169 -61 169 -72 q 169 -114 190 -138 q 212 -162 256 -162 q 290 -162 317 -148 q 344 -133 366 -110 q 387 -86 404 -56 q 420 -26 432 6 q 443 37 452 67 q 460 97 465 121 q 473 155 483 209 q 493 263 507 326 q 487 288 464 256 q 441 223 414 200 q 388 177 357 164 q 326 151 290 151 q 231 151 206 184 q 181 217 181 270 q 181 309 192 355 q 202 401 215 447 q 228 493 238 536 q 249 580 249 614 q 249 646 236 669 q 224 692 192 692 q 164 692 144 674 q 124 656 110 630 q 97 604 90 574 q 84 544 84 519 q 84 489 92 470 q 54 470 38 490 q 23 510 23 539 q 23 570 38 602 q 53 634 80 660 q 106 687 140 704 q 175 720 214 720 q 242 720 262 711 q 282 702 294 688 q 307 673 312 655 q 318 637 318 619 q 318 591 308 550 q 297 510 284 465 q 272 420 262 374 q 251 327 251 287 q 251 243 267 217 q 283 191 321 191 q 356 191 387 214 q 418 236 445 272 q 472 308 494 352 q 516 396 533 440 q 546 494 560 544 q 575 595 590 634 q 605 673 621 696 q 637 720 653 720 q 663 720 679 712 q 695 703 709 688 q 692 660 678 636 q 665 612 654 584 q 642 557 631 524 q 620 490 608 444 q 595 398 580 337 q 564 276 544 194 q 528 130 508 62 q 488 -5 456 -60 q 424 -116 376 -152 q 327 -187 255 -187 q 226 -187 201 -181 q 176 -175 158 -163 q 139 -151 128 -134 q 117 -116 117 -93 q 117 -67 132 -48 q 146 -29 177 -18 z"},"c":{"x_min":0,"x_max":324,"ha":324,"o":"m 214 338 q 235 338 248 332 q 262 325 270 314 q 278 304 282 290 q 285 277 285 264 q 285 235 272 213 q 258 191 235 191 q 218 191 206 206 q 221 214 232 238 q 243 262 243 285 q 243 297 238 304 q 234 310 221 310 q 194 310 165 286 q 136 261 112 224 q 88 187 72 144 q 57 102 57 65 q 57 50 60 35 q 64 20 72 8 q 80 -4 94 -11 q 109 -18 130 -18 q 160 -18 190 -6 q 221 7 250 30 q 278 54 302 88 q 326 121 342 163 l 355 153 q 338 108 310 70 q 283 31 250 3 q 217 -25 180 -40 q 143 -56 107 -56 q 59 -56 27 -24 q -5 7 -5 72 q -5 122 15 170 q 35 218 66 256 q 98 293 137 316 q 176 338 214 338 z"},"!":{"x_min":0,"x_max":261,"ha":261,"o":"m 30 103 q 30 121 36 145 q 41 169 49 194 q 57 220 67 246 q 77 272 85 293 q 113 365 143 441 q 173 517 202 579 q 231 641 257 680 q 283 720 304 720 q 312 720 318 714 q 324 707 324 697 q 324 683 308 641 q 291 599 264 542 q 238 485 205 420 q 172 354 139 292 q 106 231 77 180 q 48 130 30 103 z m 1 -10 q -12 -10 -22 -4 q -31 3 -31 17 q -31 34 -12 46 q 7 58 27 58 q 39 58 46 53 q 53 48 53 34 q 53 19 37 4 q 21 -10 1 -10 z"},"/":{"x_min":0,"x_max":331,"ha":331,"o":"m 386 720 q 382 709 370 679 q 357 649 340 606 q 322 563 300 510 q 278 458 255 402 q 232 345 208 288 q 185 232 164 182 q 142 131 125 90 q 108 48 97 22 q 59 -68 12 -115 q -35 -162 -78 -162 q -55 -139 -22 -80 q 10 -22 46 56 q 82 133 120 222 q 158 312 192 397 q 227 482 256 556 q 284 629 302 675 q 305 682 314 690 q 323 698 335 704 q 347 711 360 716 q 374 720 386 720 z"},"[":{"x_min":0,"x_max":394,"ha":394,"o":"m 316 -11 q 312 -49 282 -68 q 251 -87 186 -87 q 162 -87 137 -85 q 112 -83 90 -80 q 67 -77 48 -74 q 30 -70 19 -67 q 21 -63 24 -58 q 26 -52 30 -34 q 34 -16 41 18 q 48 53 60 114 q 72 176 89 270 q 106 363 131 498 q 143 561 159 601 q 175 641 192 664 q 210 686 228 694 q 246 703 261 703 q 274 703 293 702 q 312 700 333 700 q 359 700 386 704 q 412 708 433 720 q 431 693 422 677 q 413 661 399 652 q 385 644 366 642 q 348 640 328 640 q 302 640 275 646 q 248 652 221 657 q 206 615 192 556 q 178 496 164 429 q 151 362 138 292 q 126 223 115 160 q 104 97 94 46 q 84 -4 76 -32 q 130 -32 165 -31 q 200 -30 226 -28 q 251 -26 272 -22 q 292 -18 316 -11 z"},"6":{"x_min":0,"x_max":562,"ha":562,"o":"m 419 697 q 371 697 329 662 q 287 627 252 571 q 218 515 192 446 q 166 377 150 309 q 183 340 228 357 q 272 374 319 374 q 356 374 390 362 q 423 351 448 328 q 473 304 488 268 q 502 231 502 180 q 502 123 483 74 q 464 26 430 -10 q 395 -46 348 -66 q 300 -87 243 -87 q 187 -87 148 -68 q 109 -48 85 -14 q 61 19 50 64 q 39 109 39 160 q 39 217 52 280 q 64 344 88 406 q 111 469 144 526 q 178 582 221 626 q 264 669 315 694 q 366 720 424 720 q 465 720 492 706 q 518 692 518 662 q 518 648 509 635 q 500 622 472 614 q 472 622 473 627 q 474 632 474 642 q 474 664 464 680 q 453 697 419 697 z m 128 140 q 128 112 132 78 q 137 44 150 14 q 164 -15 187 -35 q 210 -55 248 -55 q 286 -55 317 -34 q 348 -12 370 22 q 391 57 403 100 q 415 143 415 186 q 415 226 404 256 q 394 285 377 304 q 360 322 338 331 q 315 340 290 340 q 245 340 214 324 q 183 307 164 279 q 145 251 136 215 q 128 179 128 140 z"},"r":{"x_min":0,"x_max":349,"ha":349,"o":"m 1 127 q 15 153 38 203 q 60 253 82 317 q 72 327 72 341 q 72 356 77 368 q 82 381 89 390 q 96 399 103 404 q 110 409 114 409 q 125 409 126 400 q 128 390 128 385 q 128 382 126 376 q 125 371 122 365 q 120 359 118 354 q 117 349 117 348 q 117 334 133 322 q 149 311 168 296 q 187 282 203 262 q 219 241 219 209 q 219 186 211 162 q 203 139 194 117 q 185 95 177 76 q 169 56 169 40 q 169 22 178 16 q 187 10 199 10 q 223 10 249 25 q 275 40 298 62 q 322 85 341 111 q 360 137 369 159 l 382 149 q 368 117 346 86 q 323 54 295 30 q 267 5 236 -10 q 205 -26 173 -26 q 139 -26 120 -8 q 100 10 100 39 q 100 61 108 86 q 117 110 128 134 q 138 159 146 182 q 155 206 155 226 q 155 242 150 254 q 145 265 136 274 q 128 282 118 288 q 108 295 99 302 q 87 272 75 244 q 63 215 51 190 q 39 165 28 144 q 18 123 10 110 z"},"2":{"x_min":0,"x_max":560,"ha":560,"o":"m 183 423 q 148 432 130 451 q 113 470 113 512 q 113 552 128 590 q 144 627 172 656 q 201 685 241 702 q 281 720 329 720 q 366 720 396 706 q 425 692 446 667 q 467 642 478 609 q 489 576 489 538 q 489 487 476 438 q 463 388 442 341 q 422 297 395 253 q 368 209 336 168 q 305 126 270 89 q 235 52 199 23 l 227 17 q 279 5 328 -4 q 378 -14 414 -14 q 433 -14 450 -8 q 466 -3 490 11 q 477 -40 452 -64 q 428 -87 388 -87 q 350 -87 298 -68 q 246 -50 196 -29 q 185 -24 174 -20 q 164 -15 153 -11 q 121 -31 93 -42 q 65 -54 39 -54 q 9 -54 -10 -39 q -29 -24 -29 0 q -29 23 -11 36 q 7 48 46 48 q 68 48 94 44 q 121 40 151 34 q 197 74 244 135 q 292 196 331 266 q 370 337 394 411 q 419 485 419 551 q 419 626 389 660 q 359 693 313 693 q 280 693 254 678 q 229 662 212 635 q 194 608 185 571 q 176 534 176 491 q 176 471 178 456 q 181 442 188 423 z m 38 -27 q 54 -27 73 -18 q 92 -10 113 4 q 90 12 70 17 q 51 22 37 22 q 17 22 10 14 q 2 5 2 -2 q 2 -13 13 -20 q 24 -27 38 -27 z"},"{":{"x_min":0,"x_max":261,"ha":261,"o":"m 131 325 q 145 311 151 295 q 157 279 157 256 q 157 209 145 170 q 133 131 119 96 q 105 62 93 31 q 81 0 81 -30 q 81 -44 88 -53 q 95 -62 114 -62 q 120 -62 127 -60 q 134 -58 139 -54 q 137 -73 123 -80 q 109 -87 92 -87 q 73 -87 60 -82 q 48 -76 40 -67 q 33 -58 30 -46 q 27 -34 27 -21 q 27 4 38 36 q 50 68 64 102 q 78 136 90 170 q 101 203 101 233 q 101 263 94 288 q 88 313 65 331 q 102 335 119 365 q 136 395 143 438 q 150 482 152 532 q 155 581 162 622 q 170 664 188 692 q 206 720 245 720 q 264 720 280 709 q 297 698 300 667 q 292 672 284 676 q 275 681 267 681 q 245 681 234 656 q 222 630 216 591 q 209 552 204 506 q 199 461 191 422 q 183 382 170 354 q 156 327 131 325 z"},"9":{"x_min":0,"x_max":567,"ha":567,"o":"m 177 -64 q 225 -64 266 -29 q 307 6 339 62 q 371 118 394 187 q 418 256 432 324 q 400 292 356 276 q 312 259 266 259 q 228 259 194 271 q 159 283 133 308 q 107 332 92 370 q 76 409 76 462 q 76 517 94 564 q 112 611 145 646 q 178 680 224 700 q 270 720 326 720 q 384 720 425 700 q 466 679 491 643 q 516 607 528 560 q 539 512 539 458 q 539 402 528 340 q 516 277 494 216 q 472 156 440 101 q 409 46 368 4 q 328 -38 278 -62 q 229 -87 173 -87 q 131 -87 104 -73 q 77 -59 77 -27 q 77 -13 86 -1 q 95 11 121 19 q 121 11 120 6 q 120 2 120 -6 q 120 -29 131 -46 q 142 -64 177 -64 z m 294 293 q 374 293 410 342 q 447 391 447 469 q 447 506 442 545 q 437 584 423 616 q 409 647 384 668 q 360 688 322 688 q 285 688 256 668 q 226 647 206 614 q 185 581 174 540 q 163 498 163 456 q 163 413 174 382 q 185 351 203 332 q 221 312 244 302 q 268 293 294 293 z"}," ":{"x_min":0,"x_max":260,"ha":260,"o":""},"I":{"x_min":0,"x_max":460,"ha":460,"o":"m 82 641 q 89 679 136 698 q 184 718 286 718 q 323 718 362 716 q 401 713 436 710 q 472 707 501 704 q 530 700 548 697 q 524 673 498 668 q 471 662 451 662 q 419 662 392 662 q 365 662 342 661 q 339 643 332 608 q 326 574 318 530 q 310 486 300 436 q 290 385 280 335 q 271 285 261 240 q 251 195 243 162 q 226 97 206 54 q 187 10 159 -9 q 185 -11 213 -14 q 241 -17 270 -20 q 298 -23 325 -26 q 352 -28 376 -28 q 347 -57 316 -64 q 284 -71 263 -71 q 182 -72 108 -73 q 35 -74 -38 -88 q -35 -61 -21 -45 q -7 -29 15 -20 q 37 -12 65 -10 q 93 -8 125 -8 q 143 31 161 88 q 179 145 196 210 q 212 274 228 342 q 244 409 258 470 q 272 532 284 582 q 297 632 307 661 q 268 660 238 659 q 209 658 184 656 q 158 653 134 650 q 110 646 82 641 z"},"H":{"x_min":0,"x_max":618,"ha":618,"o":"m 632 720 q 621 692 608 652 q 596 612 582 565 q 568 518 554 466 q 540 415 527 364 q 547 363 566 362 q 584 360 602 360 q 579 337 558 332 q 538 328 518 328 q 509 291 501 256 q 493 222 487 191 q 469 105 462 46 q 454 -14 454 -51 q 454 -63 454 -72 q 455 -80 456 -87 q 417 -83 402 -65 q 387 -47 387 -9 q 387 17 393 56 q 399 95 411 142 q 419 172 433 221 q 447 270 464 327 q 418 327 384 326 q 351 326 324 325 q 297 324 275 323 q 253 322 231 320 q 213 262 195 205 q 177 148 162 100 q 147 53 137 20 q 127 -13 124 -23 q 113 -58 92 -72 q 71 -87 55 -87 q 61 -53 69 -16 q 77 20 90 66 q 102 112 120 172 q 138 232 165 314 l 99 307 q 100 332 122 346 q 145 360 182 368 q 199 421 220 483 q 241 545 267 619 q 271 630 276 646 q 281 663 281 678 q 281 686 278 689 q 276 692 267 692 q 243 692 220 672 q 198 652 180 623 q 163 594 153 562 q 143 529 143 504 q 143 485 148 470 q 115 470 102 486 q 88 503 88 527 q 88 561 108 596 q 129 630 160 658 q 190 685 225 702 q 260 720 288 720 q 315 720 324 705 q 334 690 334 672 q 334 661 332 650 q 329 639 326 629 l 248 375 q 262 376 276 376 q 291 377 306 377 q 354 377 396 374 q 438 372 476 368 q 491 416 506 464 q 521 511 534 552 q 548 592 559 623 q 570 654 577 668 q 580 674 584 682 q 589 691 596 700 q 603 708 612 714 q 621 720 632 720 z"},"4":{"x_min":0,"x_max":479,"ha":479,"o":"m 422 720 q 426 718 430 712 q 433 706 433 694 q 433 671 414 639 q 410 622 402 588 q 395 554 386 508 q 376 462 365 406 q 354 350 342 288 l 384 288 q 403 288 416 289 q 430 290 444 294 q 425 268 399 252 q 373 235 354 235 l 332 235 q 329 220 326 205 q 323 190 321 175 q 317 152 311 114 q 305 76 300 36 q 295 -3 291 -38 q 287 -72 287 -87 q 253 -84 232 -73 q 210 -62 210 -40 q 211 -28 215 -5 q 218 15 224 47 q 229 79 238 130 q 239 136 245 165 q 251 194 260 236 q 237 236 216 236 q 194 237 177 237 q 111 237 64 233 q 18 229 -18 221 q -18 248 0 263 q 40 310 98 364 q 155 419 216 478 q 276 536 332 598 q 387 659 422 720 z m 272 291 q 286 355 302 424 q 319 493 335 545 q 307 517 276 488 q 244 458 212 429 q 181 400 151 372 q 121 343 97 317 q 89 309 82 302 q 76 294 70 288 q 92 291 118 292 q 143 293 171 293 q 200 293 224 292 q 249 292 272 291 z"},"~":{"x_min":0,"x_max":436,"ha":436,"o":"m 30 160 q 50 186 70 196 q 90 206 113 206 q 134 206 156 199 q 179 192 203 184 q 227 176 253 169 q 279 162 307 162 q 322 162 337 165 q 319 145 300 137 q 280 129 259 129 q 238 129 216 135 q 193 141 170 148 q 147 156 124 162 q 100 168 76 168 q 50 168 30 160 z"},"D":{"x_min":0,"x_max":654,"ha":654,"o":"m 569 457 q 569 518 554 562 q 539 607 512 636 q 485 665 447 679 q 409 693 364 693 q 315 693 273 678 q 231 663 200 636 q 170 610 152 574 q 135 539 135 498 q 135 476 140 461 q 107 461 94 478 q 80 494 80 517 q 80 552 105 588 q 130 624 172 654 q 215 683 272 702 q 329 720 394 720 q 461 720 508 699 q 556 678 586 641 q 616 604 630 554 q 643 504 643 446 q 643 374 624 306 q 604 239 570 180 q 537 120 491 71 q 445 22 392 -13 q 338 -48 280 -68 q 221 -87 163 -87 q 131 -87 104 -78 q 76 -70 56 -42 q 66 5 80 62 q 95 118 112 176 q 129 234 146 290 q 164 347 180 396 q 196 444 209 482 q 222 519 229 538 q 232 546 239 562 q 246 577 256 593 q 266 609 279 620 q 292 632 307 632 q 321 632 335 622 q 304 550 272 462 q 240 375 212 284 q 183 192 159 104 q 135 15 119 -57 q 133 -59 142 -60 q 152 -61 162 -61 q 215 -61 266 -40 q 317 -19 362 18 q 407 55 445 105 q 483 155 510 212 q 538 270 554 332 q 569 395 569 457 z"},"^":{"x_min":0,"x_max":204,"ha":204,"o":"m 10 441 q 4 445 2 450 q 0 455 0 460 q 0 475 14 490 q 28 506 47 518 q 66 531 85 540 q 104 548 114 548 q 126 548 142 536 q 157 525 171 508 q 185 492 194 472 q 204 453 204 437 q 204 427 200 419 q 196 411 187 406 q 173 435 155 455 q 137 475 113 498 q 82 487 58 474 q 33 461 10 441 z"},"0":{"x_min":0,"x_max":631,"ha":631,"o":"m 603 474 q 603 372 575 272 q 547 172 498 92 q 448 12 380 -38 q 313 -87 234 -87 q 184 -87 148 -66 q 112 -44 89 -8 q 66 28 54 75 q 43 122 43 174 q 43 231 55 294 q 67 356 90 417 q 112 478 144 532 q 176 587 216 629 q 256 671 304 696 q 351 720 405 720 q 450 720 487 702 q 524 685 550 653 q 575 621 589 576 q 603 530 603 474 z m 406 693 q 361 693 322 666 q 284 638 253 594 q 222 549 198 492 q 175 434 159 374 q 143 314 135 256 q 127 199 127 153 q 127 106 136 68 q 144 30 160 3 q 175 -24 198 -38 q 220 -53 248 -53 q 286 -53 321 -28 q 356 -2 387 40 q 418 83 444 138 q 470 194 488 255 q 507 316 517 378 q 527 440 527 495 q 527 537 520 574 q 514 610 500 636 q 485 663 462 678 q 439 693 406 693 z"},"F":{"x_min":0,"x_max":483,"ha":483,"o":"m 71 305 q 72 324 82 337 q 93 350 110 358 q 128 367 152 370 q 175 374 202 375 q 230 452 260 526 q 289 599 318 660 q 308 661 298 662 q 289 662 279 662 q 231 662 200 654 q 169 647 151 632 q 133 617 126 594 q 119 571 119 540 q 119 517 122 499 q 125 481 132 461 q 97 467 82 487 q 66 507 66 539 q 66 578 88 610 q 109 643 146 666 q 184 689 234 702 q 284 715 341 715 q 394 715 443 708 q 492 700 540 700 q 580 700 614 710 q 577 668 552 654 q 527 640 501 640 q 478 640 442 646 q 405 652 359 657 q 349 632 338 600 q 326 567 314 530 q 301 493 288 453 q 275 413 263 374 q 314 371 358 365 q 402 359 438 358 q 430 346 420 340 q 410 333 390 330 q 371 327 337 326 q 303 324 248 323 l 204 174 q 174 73 164 11 q 153 -51 152 -87 q 129 -85 116 -78 q 102 -72 95 -62 q 88 -52 86 -38 q 84 -25 84 -8 q 84 19 93 56 q 102 92 116 135 q 130 178 148 225 q 165 272 182 319 q 164 317 146 315 q 128 313 105 310 z"},"`":{"x_min":0,"x_max":126,"ha":126,"o":"m 0 526 q 2 544 8 550 q 14 557 22 557 q 37 557 55 542 q 73 526 89 506 q 105 485 116 465 q 126 445 126 436 q 126 431 123 422 q 120 414 112 410 q 90 439 63 466 q 36 494 0 526 z"},"k":{"x_min":0,"x_max":447,"ha":447,"o":"m 195 142 q 206 142 228 148 q 249 153 270 164 q 291 176 307 194 q 323 212 323 238 q 323 259 308 271 q 293 283 273 283 q 243 283 218 262 q 193 242 172 211 q 150 180 133 143 q 116 106 104 74 q 92 41 84 16 q 76 -8 73 -13 q 68 -22 58 -26 q 48 -31 39 -31 q 26 -31 19 -23 q 12 -15 8 -2 q 5 12 4 29 q 4 46 4 63 q 4 115 22 184 q 39 252 67 324 q 95 397 129 467 q 163 537 197 592 q 231 647 260 680 q 289 714 307 714 q 321 714 330 695 q 338 676 338 649 q 338 614 322 572 q 307 530 280 488 q 253 445 216 406 q 178 368 134 341 q 101 260 84 184 q 68 107 68 55 q 84 95 107 144 q 130 192 158 234 q 187 277 220 306 q 254 335 292 335 q 329 335 355 309 q 381 283 381 246 q 381 214 364 192 q 348 169 325 155 q 302 141 278 135 q 254 129 239 129 q 240 121 245 100 q 250 78 260 56 q 269 34 283 17 q 297 0 317 0 q 338 0 358 12 q 378 25 397 47 q 416 69 433 99 q 450 129 465 163 l 475 153 q 464 116 444 82 q 425 47 401 20 q 377 -6 350 -22 q 323 -38 297 -38 q 268 -38 248 -18 q 229 1 217 29 q 205 57 200 88 q 195 119 195 142 z m 301 633 q 293 633 277 612 q 261 592 240 558 q 219 523 196 477 q 173 431 151 381 q 185 409 214 443 q 242 477 262 511 q 282 545 293 575 q 304 605 304 624 q 304 633 301 633 z"},"u":{"x_min":0,"x_max":439,"ha":439,"o":"m 276 271 q 280 270 288 268 q 296 267 304 264 q 312 261 318 256 q 324 251 324 245 q 324 241 314 218 q 303 195 290 164 q 278 132 268 98 q 257 65 257 40 q 257 22 264 11 q 272 0 290 0 q 306 0 327 11 q 348 22 371 42 q 394 63 416 93 q 439 123 457 162 l 470 153 q 454 112 430 78 q 407 45 380 21 q 353 -3 324 -16 q 296 -30 269 -30 q 229 -30 214 -8 q 199 13 199 44 q 199 56 201 68 q 203 81 206 94 q 192 69 177 46 q 162 24 146 7 q 129 -10 112 -20 q 94 -30 75 -30 q 41 -30 20 0 q 0 30 0 71 q 0 99 10 138 q 19 178 32 213 q 46 248 62 273 q 77 298 88 298 q 93 298 105 292 q 117 287 125 278 q 117 265 106 242 q 94 218 84 190 q 73 162 66 132 q 58 102 58 77 q 58 71 59 60 q 60 48 64 37 q 67 26 74 18 q 82 10 94 10 q 117 10 143 40 q 169 70 194 112 q 219 154 240 198 q 262 243 276 271 z"},"]":{"x_min":0,"x_max":411,"ha":411,"o":"m 391 699 q 388 685 382 647 q 376 609 368 558 q 360 506 350 446 q 341 386 331 328 q 321 269 312 218 q 303 166 296 132 q 291 109 284 74 q 276 40 262 8 q 247 -25 224 -48 q 202 -71 168 -71 q 116 -71 64 -74 q 13 -76 -24 -88 q -23 -68 -14 -54 q -5 -41 10 -33 q 24 -25 42 -22 q 61 -18 81 -18 q 107 -18 140 -21 q 173 -24 205 -26 q 219 14 234 72 q 248 130 262 196 q 276 262 290 332 q 303 402 315 466 q 327 531 338 585 q 348 639 357 674 l 294 674 q 244 674 195 670 q 146 667 95 653 q 95 674 104 688 q 113 701 130 708 q 146 715 170 718 q 194 720 224 720 q 261 720 304 714 q 346 709 391 699 z"},"U":{"x_min":0,"x_max":707,"ha":707,"o":"m 607 -75 q 588 -88 572 -94 q 555 -99 541 -99 q 503 -99 482 -68 q 460 -36 460 7 q 460 21 462 44 q 464 68 469 98 q 450 57 428 23 q 405 -11 378 -36 q 352 -60 320 -74 q 289 -87 253 -87 q 188 -87 156 -48 q 123 -9 123 49 q 123 81 132 124 q 142 168 156 217 q 169 266 186 318 q 202 371 216 422 q 229 473 238 520 q 248 566 248 604 q 248 692 192 692 q 165 692 145 674 q 125 656 112 630 q 99 604 92 574 q 86 543 86 519 q 86 489 94 470 q 56 470 40 490 q 25 510 25 539 q 25 570 40 602 q 55 634 82 660 q 108 687 142 704 q 177 720 216 720 q 271 720 295 687 q 319 654 319 599 q 319 544 300 473 q 281 402 258 329 q 234 256 215 186 q 196 117 196 65 q 196 18 216 -14 q 235 -47 280 -47 q 321 -47 355 -20 q 389 8 415 48 q 441 89 459 136 q 477 184 487 224 q 499 274 513 330 q 527 386 542 441 q 556 496 572 546 q 587 597 602 636 q 618 674 632 697 q 647 720 661 720 q 669 720 683 712 q 697 703 711 688 q 702 682 686 645 q 669 608 648 552 q 628 496 606 427 q 585 358 568 288 q 550 218 538 154 q 527 89 527 42 q 527 7 532 -16 q 536 -38 546 -51 q 555 -64 570 -70 q 586 -75 607 -75 z"},"o":{"x_min":0,"x_max":365,"ha":365,"o":"m 270 63 q 243 63 222 73 q 187 28 147 -2 q 107 -32 69 -32 q 26 -32 8 -6 q -10 21 -10 59 q -10 90 0 124 q 10 157 26 185 q 42 213 63 232 q 84 250 105 250 q 114 250 126 245 q 117 237 104 215 q 92 193 81 166 q 70 139 62 112 q 55 85 55 66 q 55 36 64 22 q 74 9 91 9 q 112 9 141 32 q 170 54 198 89 q 169 112 154 150 q 139 187 139 226 q 139 251 146 274 q 152 296 164 314 q 177 331 195 342 q 213 352 237 352 q 278 352 292 330 q 306 308 306 275 q 306 236 287 188 q 268 141 239 97 q 257 87 277 87 q 289 87 304 90 q 318 94 333 102 q 348 111 362 124 q 375 138 384 159 l 396 149 q 386 125 371 109 q 356 93 339 82 q 322 72 304 68 q 286 63 270 63 z m 182 223 q 182 194 190 164 q 199 135 216 115 q 241 152 258 192 q 274 233 274 269 q 274 298 266 312 q 257 325 244 325 q 234 325 223 317 q 212 309 203 296 q 194 282 188 264 q 182 245 182 223 z"},"N":{"x_min":0,"x_max":641,"ha":641,"o":"m 663 720 q 645 674 624 607 q 603 540 581 464 q 559 387 538 306 q 517 225 501 150 q 485 76 474 14 q 464 -48 464 -87 q 432 -87 413 -69 q 394 -51 386 -6 q 381 20 374 66 q 366 112 358 168 q 349 223 340 284 q 331 345 322 402 q 314 459 306 508 q 299 557 295 589 q 255 445 225 338 q 195 232 172 157 q 150 82 133 34 q 116 -13 102 -40 q 88 -67 74 -77 q 61 -87 46 -87 q 58 -39 76 20 q 94 78 120 160 q 145 243 179 354 q 213 466 258 619 q 260 624 262 636 q 265 649 265 660 q 265 670 262 676 q 258 683 250 683 q 226 683 204 664 q 183 646 168 618 q 152 591 143 560 q 134 529 134 505 q 134 485 139 470 q 106 470 92 486 q 79 503 79 527 q 79 561 100 596 q 120 630 150 658 q 180 685 215 702 q 250 720 279 720 q 309 720 328 694 q 348 668 360 624 q 373 581 380 524 q 388 468 395 408 q 401 358 407 308 q 413 259 419 214 q 425 170 430 133 q 435 96 439 72 q 446 119 460 179 q 473 239 490 302 q 506 366 524 428 q 542 490 558 541 q 573 592 584 627 q 596 662 600 671 q 603 677 609 686 q 615 694 623 702 q 631 709 642 714 q 652 720 663 720 z"},"+":{"x_min":0,"x_max":409,"ha":409,"o":"m 141 -11 q 145 13 147 32 q 149 52 150 71 q 151 90 152 110 q 152 130 152 155 q 129 155 110 154 q 90 154 72 153 q 54 152 35 150 q 16 148 -7 144 q 3 171 46 181 q 90 191 152 193 l 152 243 q 152 264 158 292 q 163 321 181 346 q 183 326 186 284 q 189 242 190 193 q 241 192 285 189 q 329 186 350 184 q 325 166 296 160 q 268 155 247 155 l 190 155 q 188 90 178 45 q 169 0 141 -11 z"},"G":{"x_min":0,"x_max":555,"ha":555,"o":"m 445 -87 q 420 -77 406 -60 q 391 -42 391 -15 q 391 7 398 31 q 362 -19 315 -53 q 268 -87 209 -87 q 170 -87 136 -70 q 101 -54 76 -22 q 51 10 36 56 q 22 102 22 161 q 22 225 40 292 q 57 358 86 420 q 116 482 156 536 q 196 591 242 632 q 288 672 336 696 q 385 719 433 719 q 461 719 481 710 q 501 700 514 684 q 526 669 532 648 q 537 628 537 606 q 537 580 530 554 q 523 528 511 507 q 499 486 483 473 q 467 460 449 460 q 441 460 432 465 q 424 470 418 483 q 428 490 442 508 q 455 525 467 546 q 479 568 488 592 q 496 616 496 636 q 496 659 482 674 q 469 689 436 689 q 400 689 362 664 q 323 639 286 596 q 248 554 215 498 q 182 443 156 382 q 131 321 116 258 q 102 196 102 141 q 102 50 140 -2 q 178 -53 236 -53 q 275 -53 310 -24 q 345 5 372 50 q 398 94 415 148 q 432 201 436 250 q 399 258 376 260 q 353 263 333 263 q 319 263 305 262 q 291 262 272 262 q 279 291 296 302 q 314 314 340 314 q 361 314 384 308 q 406 302 428 294 q 451 287 472 279 q 492 271 509 267 l 502 235 q 483 185 471 148 q 459 110 452 81 q 446 52 444 30 q 441 9 441 -9 q 441 -29 442 -48 q 444 -67 445 -87 z"},"q":{"x_min":0,"x_max":402,"ha":402,"o":"m 311 271 q 311 293 298 310 q 285 326 254 326 q 227 326 202 312 q 176 298 154 276 q 131 253 113 224 q 95 196 82 167 q 69 138 62 112 q 55 85 55 66 q 55 43 64 30 q 74 18 90 18 q 110 18 133 37 q 156 56 180 86 q 204 117 229 155 q 254 193 277 230 q 288 248 300 254 q 311 261 321 261 q 333 261 337 255 q 341 249 341 243 q 341 231 331 213 q 321 195 307 170 q 293 144 278 110 q 263 75 253 29 q 274 31 296 38 q 318 45 339 60 q 360 76 380 100 q 401 125 420 161 l 432 150 q 415 112 394 86 q 372 59 348 42 q 324 25 299 16 q 274 7 251 5 q 268 -49 268 -108 q 268 -143 262 -174 q 257 -206 247 -230 q 237 -253 224 -266 q 210 -280 194 -280 q 180 -280 170 -265 q 159 -250 159 -207 q 159 -181 163 -144 q 167 -108 175 -67 q 183 -26 194 17 q 204 60 218 98 q 178 41 138 6 q 97 -30 60 -30 q 47 -30 34 -26 q 21 -21 10 -10 q -1 0 -8 16 q -15 33 -15 56 q -15 85 -4 118 q 8 152 28 186 q 48 219 75 250 q 102 281 133 305 q 164 329 198 343 q 231 357 265 357 q 299 357 322 343 q 344 329 344 308 q 344 295 336 283 q 327 271 311 271 z m 246 -99 q 246 -58 239 -24 q 226 -78 220 -124 q 213 -170 213 -197 q 213 -225 221 -225 q 227 -225 232 -214 q 236 -202 239 -184 q 242 -166 244 -144 q 246 -121 246 -99 z"},"d":{"x_min":0,"x_max":474,"ha":474,"o":"m 295 315 q 284 330 257 330 q 230 330 204 316 q 179 302 156 279 q 134 256 115 227 q 96 198 82 168 q 69 139 62 112 q 54 85 54 66 q 54 43 64 30 q 73 18 90 18 q 110 18 138 38 q 165 57 194 93 q 224 129 253 180 q 282 230 306 293 q 334 365 364 441 q 394 517 423 579 q 452 641 478 680 q 504 720 525 720 q 533 720 539 714 q 545 707 545 697 q 545 681 528 642 q 511 604 486 550 q 460 497 430 434 q 400 371 374 306 q 349 242 332 180 q 315 119 315 70 q 315 41 318 28 q 321 14 338 14 q 353 14 374 24 q 394 35 415 54 q 436 73 456 100 q 476 128 492 162 l 504 153 q 489 114 466 82 q 444 49 418 25 q 392 1 364 -12 q 335 -26 310 -26 q 291 -26 278 -19 q 266 -12 258 -2 q 251 9 248 22 q 244 36 244 49 q 244 66 249 94 q 254 121 263 156 q 239 116 212 82 q 186 48 160 23 q 133 -2 108 -16 q 82 -30 59 -30 q 46 -30 33 -25 q 20 -20 9 -10 q -2 0 -9 16 q -16 32 -16 54 q -16 82 -4 116 q 7 149 26 183 q 46 217 72 249 q 98 281 128 306 q 158 330 190 345 q 222 360 253 360 q 297 360 297 329 q 297 325 296 322 q 296 319 295 315 z"},"1":{"x_min":0,"x_max":366,"ha":366,"o":"m 298 720 q 303 715 305 706 q 307 697 307 689 q 307 664 298 636 q 289 607 284 577 q 274 508 259 426 q 244 343 224 260 q 205 178 182 102 q 159 26 132 -30 q 153 -27 172 -27 q 210 -27 236 -38 q 262 -48 269 -83 q 249 -81 230 -80 q 210 -78 190 -78 q 142 -78 102 -82 q 61 -87 20 -87 q 2 -87 -20 -76 q -42 -66 -56 -46 q -48 -47 -40 -48 q -32 -48 -24 -48 q 2 -48 30 -45 q 58 -42 84 -37 q 99 -2 113 48 q 127 97 140 154 q 153 210 165 270 q 177 330 188 388 q 199 445 209 496 q 219 546 228 584 q 199 564 180 551 q 160 538 146 530 q 133 523 125 520 q 117 518 113 518 q 101 518 94 524 q 88 529 88 547 q 102 554 126 571 q 151 588 180 611 q 209 634 240 662 q 271 690 298 720 z"},"5":{"x_min":0,"x_max":484,"ha":484,"o":"m 156 -55 q 196 -55 227 -34 q 258 -14 280 19 q 301 52 312 93 q 324 134 324 174 q 324 205 316 233 q 309 261 293 282 q 277 304 252 317 q 226 330 190 330 q 153 330 98 319 q 103 354 118 410 q 132 466 148 525 q 165 584 180 636 q 195 687 202 713 q 232 705 258 702 q 285 700 308 700 q 350 700 386 706 q 423 712 463 720 q 467 705 467 693 q 467 671 456 656 q 445 642 427 634 q 409 625 387 622 q 365 618 344 618 q 306 618 280 624 q 254 631 235 631 q 226 631 222 628 q 218 624 212 611 q 205 595 197 570 q 189 546 181 518 q 173 489 165 460 q 157 431 151 408 q 145 384 141 368 q 137 351 136 348 q 157 353 178 356 q 200 358 223 358 q 274 358 311 344 q 348 329 372 304 q 397 279 409 244 q 421 209 421 169 q 421 115 401 68 q 381 21 346 -14 q 311 -48 262 -68 q 214 -87 156 -87 q 107 -87 74 -74 q 42 -60 22 -40 q 3 -19 -5 6 q -13 31 -13 54 q -13 73 -8 92 q -3 112 8 128 q 18 144 33 154 q 48 163 68 163 q 73 163 78 163 q 82 163 86 162 q 72 150 63 123 q 54 96 54 65 q 54 42 60 20 q 65 -1 77 -18 q 89 -34 108 -44 q 128 -55 156 -55 z"}}}
